<?xml version="1.0" ?><!DOCTYPE svg  PUBLIC '-//W3C//DTD SVG 1.1//EN'  'http://www.w3.org/Graphics/SVG/1.1/DTD/svg11.dtd'><svg enable-background="new 0 0 75 75" height="75px" id="Layer_1" version="1.1" viewBox="0 0 75 75" width="75px" xml:space="preserve" xmlns="http://www.w3.org/2000/svg" xmlns:xlink="http://www.w3.org/1999/xlink"><g><path d="M61.873,25.473c-3.17,1.125-5.453,4.123-5.453,7.68s2.283,6.549,5.453,7.676   c3.17-1.127,5.453-4.119,5.453-7.676S65.043,26.598,61.873,25.473z" fill="#C6621E"/><path d="M64.805,43.512c0-3.396-2.754-6.148-6.15-6.148H31.797c-3.396,0-6.15,2.752-6.15,6.148v10.699   c0,0.064,0.018,0.123,0.02,0.188c-0.004,0.031-0.02,0.059-0.02,0.096v13.592c0,0.377,0.305,0.682,0.68,0.682h5.982   c0.377,0,0.68-0.305,0.68-0.682v-7.725h2.904v7.725c0,0.377,0.305,0.682,0.68,0.682h5.982c0.373,0,0.68-0.305,0.68-0.682v-7.725   h14.229v7.725c0,0.377,0.305,0.682,0.682,0.682h5.98c0.375,0,0.68-0.305,0.68-0.682V54.494c0-0.037-0.014-0.064-0.02-0.096   c0.004-0.064,0.02-0.123,0.02-0.188V43.512z" fill="#EA7628"/><path d="M58.654,40.498H31.797c-3.396,0-6.15,2.752-6.15,6.148v7.564c0,0.064,0.018,0.123,0.02,0.188   c-0.004,0.031-0.02,0.059-0.02,0.096v2.854c0,0.062,0.018,0.121,0.02,0.188c-0.004,0.031-0.02,0.059-0.02,0.094v10.457   c0,0.377,0.305,0.682,0.68,0.682h5.982c0.377,0,0.68-0.305,0.68-0.682v-4.59v-3.135h2.904v3.135v4.59   c0,0.377,0.305,0.682,0.68,0.682h5.982c0.373,0,0.68-0.305,0.68-0.682v-4.59v-3.135h14.229v3.135v4.59   c0,0.377,0.305,0.682,0.682,0.682h5.98c0.375,0,0.68-0.305,0.68-0.682V57.629c0-0.035-0.014-0.062-0.02-0.094   c0.004-0.066,0.02-0.125,0.02-0.188v-2.854c0-0.037-0.014-0.064-0.02-0.096c0.004-0.064,0.02-0.123,0.02-0.188v-7.564   C64.805,43.25,62.051,40.498,58.654,40.498z" fill="#D36B24"/><path d="M57.463,68.086c0,0.377,0.305,0.682,0.682,0.682h5.98c0.375,0,0.68-0.305,0.68-0.682V62.15L43.15,40.498   H31.797c-3.396,0-6.15,2.752-6.15,6.148v3.176l17.588,17.586v-3.912v-3.135h14.229v3.135V68.086z" fill="#C6621E"/><path d="M47.217,60.361v7.725c0,0.377,0.305,0.682,0.68,0.682h5.98c0.377,0,0.682-0.305,0.682-0.682v-7.725H47.217z   " fill="#A0490E"/><g><path d="M51.947,20.531H35.15H35H24.621h-0.152H7.674c0,4.494,3.498,8.158,7.916,8.445    c-0.008,0.154-0.023,0.303-0.023,0.459v11.273c0,4.916,3.986,8.902,8.902,8.902H35.15c4.916,0,8.904-3.986,8.904-8.902V29.436    c0-0.156-0.018-0.305-0.025-0.459C48.449,28.689,51.947,25.025,51.947,20.531z" fill="#EA7628"/><path d="M44.055,31.219v-1.783c0-0.156-0.018-0.305-0.025-0.459c3.654-0.238,6.67-2.785,7.609-6.199H35.15H35    H24.621h-0.152H7.982c0.938,3.414,3.955,5.961,7.607,6.199c-0.008,0.154-0.023,0.303-0.023,0.459v1.783    c0.008,0.002,0.016,0.004,0.023,0.004c-0.008,0.152-0.023,0.303-0.023,0.455v9.031c0,4.916,3.986,8.902,8.902,8.902H35.15    c4.916,0,8.904-3.986,8.904-8.902v-9.031c0-0.152-0.018-0.303-0.025-0.455C44.037,31.223,44.047,31.221,44.055,31.219z" fill="#C6621E"/><path d="M29.82,22.777h-5.199h-0.152H7.982c0.938,3.414,3.955,5.961,7.607,6.199    c-0.008,0.154-0.023,0.303-0.023,0.459v1.783c0.008,0.002,0.016,0.004,0.023,0.004c-0.008,0.152-0.023,0.303-0.023,0.455v9.031    c0,4.916,3.986,8.902,8.902,8.902h5.352V22.777z" fill="#D36B24"/><g><path d="M15.566,29.598c0-0.154,0.016-0.307,0.023-0.459c-0.002,0-0.004,0-0.008,0     c-0.008,0.098-0.016,0.195-0.016,0.297V29.598z" fill="#A0490E"/><path d="M44.029,29.139c0.008,0.152,0.025,0.305,0.025,0.459v-0.162c0-0.102-0.01-0.199-0.018-0.297     C44.035,29.139,44.033,29.139,44.029,29.139z" fill="#A0490E"/><path d="M35.15,47.527H24.469c-4.916,0-8.902-3.986-8.902-8.9v2.082c0,4.916,3.986,8.902,8.902,8.902H35.15     c4.916,0,8.904-3.986,8.904-8.902v-2.082C44.055,43.541,40.066,47.527,35.15,47.527z" fill="#A0490E"/></g><g><line fill="#C6621E" x1="17.305" x2="15.158" y1="28.938" y2="28.938"/><line fill="#C6621E" x1="44.463" x2="42.314" y1="28.938" y2="28.938"/></g><g><path d="M20.449,20.531h3.281c-0.014-0.043-0.021-0.082-0.041-0.123l-2.594-5.795l1.834-2.225     c0.307-0.367,0.416-0.863,0.297-1.332l-0.617-2.395c-0.205-0.805-1.025-1.287-1.83-1.082c-0.807,0.205-1.289,1.025-1.082,1.832     l0.426,1.654l-0.398,0.484l-1.986-4.43c-0.338-0.756-1.227-1.098-1.986-0.758s-1.098,1.229-0.76,1.988L18.15,15.4l-0.826-0.131     l-1.705-3.061c-0.406-0.727-1.322-0.988-2.049-0.582c-0.725,0.404-0.984,1.32-0.58,2.045l2.062,3.699     c0.225,0.404,0.623,0.682,1.076,0.754l3.49,0.555L20.449,20.531z" fill="#EAB818"/><path d="M39.172,20.531h-3.283c0.014-0.043,0.023-0.082,0.041-0.123l2.596-5.795l-1.834-2.225     c-0.307-0.367-0.416-0.863-0.297-1.332l0.617-2.395c0.205-0.805,1.025-1.287,1.83-1.082s1.289,1.025,1.082,1.832l-0.426,1.654     l0.398,0.484l1.984-4.43c0.34-0.756,1.229-1.098,1.988-0.758s1.098,1.229,0.76,1.988l-3.16,7.049l0.828-0.131l1.705-3.061     c0.404-0.727,1.322-0.988,2.049-0.582c0.723,0.404,0.982,1.32,0.578,2.045l-2.061,3.699c-0.225,0.404-0.623,0.682-1.076,0.754     L40,18.68L39.172,20.531z" fill="#EAB818"/></g><g><path d="M21.482,15.475l-0.387-0.861l1.834-2.225c0.088-0.104,0.154-0.223,0.209-0.344l-0.529-2.053     c-0.205-0.805-1.025-1.287-1.83-1.082c-0.463,0.117-0.814,0.441-0.994,0.848l0.338,1.309l-0.262,0.318l0.262,1.012l-0.398,0.486     l-1.986-4.43c-0.338-0.758-1.227-1.098-1.986-0.76c-0.336,0.15-0.584,0.412-0.732,0.717l3.131,6.99l-0.641-0.104l0.641,1.434     l-0.826-0.133l-1.705-3.059c-0.406-0.729-1.322-0.986-2.049-0.582c-0.273,0.154-0.48,0.379-0.611,0.643     c0.012,0.023,0.018,0.049,0.031,0.072l2.062,3.699c0.225,0.404,0.623,0.682,1.076,0.754l3.49,0.555l0.83,1.852h2.701     l-2.055-4.588L21.482,15.475z" fill="#ED9015"/><path d="M38.525,15.943l-2.055,4.588h2.701L40,18.68l3.492-0.555c0.453-0.072,0.852-0.35,1.076-0.754l2.061-3.699     c0.014-0.023,0.02-0.049,0.033-0.072c-0.131-0.264-0.338-0.488-0.611-0.643c-0.727-0.404-1.645-0.146-2.049,0.582l-1.705,3.059     l-0.828,0.133l0.643-1.434L41.469,15.4l3.133-6.99c-0.148-0.305-0.396-0.566-0.732-0.717c-0.76-0.338-1.648,0.002-1.988,0.76     l-1.984,4.43l-0.398-0.486l0.262-1.012l-0.262-0.318l0.338-1.309c-0.182-0.406-0.531-0.73-0.994-0.848     c-0.805-0.205-1.625,0.277-1.83,1.082l-0.529,2.053c0.055,0.121,0.121,0.24,0.209,0.344l1.834,2.225l-0.387,0.861L38.525,15.943z     " fill="#ED9015"/></g><g><g><path d="M24.994,35.822c-0.414,0-0.75-0.336-0.75-0.75c0-0.646-0.524-1.17-1.17-1.17      c-0.646,0-1.172,0.523-1.172,1.17c0,0.414-0.336,0.75-0.75,0.75s-0.75-0.336-0.75-0.75c0-1.473,1.198-2.67,2.672-2.67      c1.473,0,2.67,1.197,2.67,2.67C25.744,35.486,25.408,35.822,24.994,35.822z" fill="#093260"/></g><g><path d="M38.467,35.822c-0.414,0-0.75-0.336-0.75-0.75c0-0.646-0.524-1.17-1.17-1.17s-1.17,0.523-1.17,1.17      c0,0.414-0.336,0.75-0.75,0.75s-0.75-0.336-0.75-0.75c0-1.473,1.197-2.67,2.67-2.67s2.67,1.197,2.67,2.67      C39.217,35.486,38.881,35.822,38.467,35.822z" fill="#093260"/></g></g><path d="M34.754,40.166c-0.414,0-0.75,0.336-0.75,0.75c0,0.949-0.771,1.723-1.721,1.723    c-0.95,0-1.723-0.773-1.723-1.723v-3.553c0-0.414-0.336-0.75-0.75-0.75s-0.75,0.336-0.75,0.75v3.553    c0,0.949-0.772,1.723-1.723,1.723c-0.949,0-1.721-0.773-1.721-1.723c0-0.414-0.336-0.75-0.75-0.75s-0.75,0.336-0.75,0.75    c0,1.777,1.444,3.223,3.221,3.223c0.998,0,1.881-0.467,2.473-1.182c0.592,0.715,1.475,1.182,2.473,1.182    c1.776,0,3.221-1.445,3.221-3.223C35.504,40.502,35.168,40.166,34.754,40.166z" fill="#A0490E"/><g><path d="M29.811,39.211c-0.178,0-0.355-0.07-0.492-0.205l-2.078-2.08c-0.201-0.197-0.26-0.496-0.152-0.758     c0.107-0.26,0.361-0.43,0.645-0.43h4.156c0.283,0,0.537,0.17,0.643,0.43c0.109,0.262,0.049,0.561-0.15,0.758l-2.078,2.08     C30.166,39.141,29.988,39.211,29.811,39.211z" fill="#BC2A54"/></g><path d="M29.811,39.211c0.178,0,0.355-0.07,0.492-0.205l1.959-1.961c-0.109-0.068-0.236-0.109-0.373-0.109h-4.156    c-0.137,0-0.264,0.041-0.373,0.109l1.959,1.961C29.455,39.141,29.633,39.211,29.811,39.211z" fill="#962248"/><g><g><path d="M29.811,39.961c-0.382,0-0.743-0.15-1.019-0.422l-2.082-2.084c-0.414-0.406-0.54-1.025-0.315-1.572      c0.225-0.545,0.75-0.895,1.338-0.895h4.156c0.591,0,1.116,0.352,1.338,0.896c0.225,0.539,0.101,1.158-0.318,1.574l-2.075,2.076      C30.554,39.811,30.192,39.961,29.811,39.961z M27.863,36.488l1.947,1.949l1.947-1.949H27.863z" fill="#962248"/></g></g><g><g><g><polygon fill="#1BC1A9" points="22.447,20.943 16.857,28.291 12.279,18.135 21.486,18.811      "/><polygon fill="#109BAD" points="13.371,20.557 16.857,28.291 22.244,21.213      "/></g><g><polygon fill="#1BC1A9" points="21.486,18.811 27.078,11.463 31.656,21.623 22.447,20.943      "/><polygon fill="#109BAD" points="31.656,21.623 28.17,13.889 22.783,20.971      "/></g></g><path d="M25.383,20.074c0.402,0.893,0.004,1.943-0.891,2.346l-2.291,1.035c-0.893,0.4-1.945,0.004-2.348-0.889     l-1.299-2.885c-0.402-0.895-0.006-1.945,0.889-2.348l2.293-1.035c0.893-0.4,1.941-0.004,2.346,0.891L25.383,20.074z" fill="#1BC1A9"/><path d="M22.836,18.744l-2.291,1.035c-0.895,0.402-1.291,1.453-0.889,2.346l0.197,0.441     c0.402,0.893,1.455,1.289,2.348,0.889l2.291-1.035c0.895-0.402,1.293-1.453,0.891-2.346l-0.199-0.441     C24.781,18.74,23.729,18.344,22.836,18.744z" fill="#109BAD"/></g></g></g></svg>