<?xml version="1.0" ?><svg id="Layer_1" style="enable-background:new 0 0 30 30;" version="1.1" viewBox="0 0 30 30" xml:space="preserve" xmlns="http://www.w3.org/2000/svg" xmlns:xlink="http://www.w3.org/1999/xlink"><path d="M20.619,18.457c-0.081,0.081-0.163,0.162-0.244,0.241c-0.547,0.539-1.055,1.044-1.464,1.524C23.523,20.765,26,22.188,26,23  c0,1.019-3.883,3-11,3S4,24.019,4,23c0-0.812,2.477-2.235,7.089-2.778c-0.41-0.48-0.918-0.985-1.464-1.524  c-0.08-0.079-0.162-0.16-0.244-0.241C5.226,19.167,2,20.696,2,23c0,3.282,6.54,5,13,5s13-1.718,13-5  C28,20.696,24.774,19.167,20.619,18.457z"/><path d="M15,2c-4.418,0-8,3.582-8,8c0,6,7,8,7,12c0,0.552,0.448,1,1,1s1-0.448,1-1c0-4,7-6,7-12C23,5.582,19.418,2,15,2z M15,12  c-1.105,0-2-0.895-2-2c0-1.105,0.895-2,2-2s2,0.895,2,2C17,11.105,16.105,12,15,12z"/></svg>