<?xml version="1.0" encoding="utf-8"?>
<!-- Generator: Adobe Illustrator 16.0.0, SVG Export Plug-In . SVG Version: 6.00 Build 0)  -->
<!DOCTYPE svg PUBLIC "-//W3C//DTD SVG 1.1//EN" "http://www.w3.org/Graphics/SVG/1.1/DTD/svg11.dtd">
<svg version="1.1" id="Layer_1" xmlns="http://www.w3.org/2000/svg" xmlns:xlink="http://www.w3.org/1999/xlink" x="0px" y="0px"
	 width="252px" height="144px" viewBox="0 0 252 144" enable-background="new 0 0 252 144" xml:space="preserve">
<g>
	<g>
		<g>
			<path d="M18.14,117.3l1.292-0.69c0.688,1.228,1.701,2.283,3.767,2.283c1.702,0,3.037-0.947,3.037-2.498
				c0-1.485-0.926-2.239-2.756-3.057l-1.163-0.539c-2.089-0.947-3.229-1.959-3.229-4.004c0-2.11,1.658-3.511,3.854-3.511
				c1.959,0,3.187,0.905,3.962,2.196l-1.25,0.775c-0.56-0.903-1.334-1.593-2.713-1.593c-1.442,0-2.326,0.84-2.326,2.088
				c0,1.292,0.69,1.873,2.326,2.626l1.164,0.54c2.432,1.076,3.681,2.281,3.681,4.478c0,2.412-1.917,3.876-4.543,3.876
				C20.443,120.271,18.916,118.85,18.14,117.3z"/>
			<path d="M30.545,112.777c0-4.414,3.358-7.493,7.514-7.493c2.583,0,4.564,0.97,5.813,2.843l-1.185,0.861
				c-0.947-1.399-2.519-2.304-4.629-2.304c-3.423,0-5.9,2.604-5.9,6.093s2.477,6.094,5.9,6.094c2.131,0,3.768-0.926,4.823-2.455
				l1.206,0.84c-1.292,1.895-3.402,3.015-6.029,3.015C33.903,120.271,30.545,117.191,30.545,112.777z"/>
			<path d="M51.993,105.306h0.259l6.2,14.792h-1.636l-0.99-2.454h-7.406l-0.97,2.454h-1.528L51.993,105.306z M55.266,116.309
				l-2.584-6.503c-0.28-0.688-0.56-1.743-0.56-1.743s-0.301,1.055-0.581,1.743l-2.584,6.503H55.266z"/>
			<path d="M64.032,109.914c-0.409-0.495-1.012-1.357-1.012-1.357s0.129,1.034,0.129,1.659v9.882h-1.463v-14.792h0.258l8.741,10.336
				c0.409,0.495,1.011,1.356,1.011,1.356s-0.107-1.034-0.107-1.658v-9.883h1.443v14.792h-0.258L64.032,109.914z"/>
			<path d="M82.358,105.328h0.258l6.696,14.77h-3.165l-0.689-1.657h-5.943l-0.689,1.657H75.92L82.358,105.328z M84.382,115.921
				l-1.055-2.54c-0.43-1.034-0.883-2.627-0.883-2.627s-0.432,1.593-0.862,2.627l-1.054,2.54H84.382z"/>
			<path d="M89.939,112.777c0-4.327,3.058-7.493,7.472-7.493c2.39,0,4.112,0.646,5.318,2.024l-2.046,2.023
				c-0.732-0.753-1.571-1.334-3.272-1.334c-2.648,0-4.371,2.045-4.371,4.779s1.765,4.823,4.844,4.823
				c0.948,0,2.11-0.173,2.863-0.538v-2.153h-3.531v-2.648h6.287v6.33c-0.839,0.688-2.95,1.701-5.62,1.701
				C93.105,120.292,89.939,117.105,89.939,112.777z"/>
			<path d="M117.59,120.098h-3.488l-2.412-3.703c-0.28,0.043-0.581,0.064-0.862,0.064h-1.034v3.639h-3.014v-14.641h4.048
				c4.091,0,6.545,1.96,6.545,5.533c0,2.283-1.012,3.726-2.82,4.543L117.59,120.098z M110.743,113.832
				c2.455,0,3.531-0.774,3.531-2.842c0-2.066-1.12-2.885-3.531-2.885h-0.948v5.727H110.743z"/>
			<path d="M119.939,112.777c0-4.327,3.358-7.515,7.579-7.515c4.22,0,7.578,3.188,7.578,7.515c0,4.328-3.358,7.515-7.578,7.515
				C123.298,120.292,119.939,117.105,119.939,112.777z M131.996,112.777c0-2.734-1.809-4.823-4.478-4.823
				c-2.67,0-4.479,2.089-4.479,4.823s1.809,4.823,4.479,4.823C130.188,117.601,131.996,115.512,131.996,112.777z"/>
			<path d="M138.094,105.457h9.688v2.648h-6.675v4.65h5.878v2.584h-5.878v2.11h6.977v2.647h-9.99V105.457z"/>
			<path d="M151.316,105.306h0.236l7.214,7.924l7.104-7.924h0.259v14.792h-2.906v-5.49c0-0.99,0.106-2.562,0.106-2.562
				s-0.882,1.292-1.571,2.066l-2.906,3.252h-0.28l-2.906-3.252c-0.689-0.774-1.572-2.066-1.572-2.066s0.108,1.571,0.108,2.562v5.49
				h-2.886V105.306z"/>
			<path d="M169.621,105.457h4.049c4.09,0,6.545,2.132,6.545,5.662c0,3.531-2.477,5.642-6.545,5.642h-1.033v3.337h-3.016V105.457z
				 M173.584,114.112c2.455,0,3.53-0.99,3.53-2.993c0-2.023-1.119-3.014-3.53-3.014h-0.947v6.007H173.584z"/>
			<path d="M193.804,120.098h-3.487l-2.412-3.703c-0.279,0.043-0.581,0.064-0.861,0.064h-1.033v3.639h-3.014v-14.641h4.047
				c4.092,0,6.546,1.96,6.546,5.533c0,2.283-1.013,3.726-2.82,4.543L193.804,120.098z M186.957,113.832
				c2.455,0,3.531-0.774,3.531-2.842c0-2.066-1.12-2.885-3.531-2.885h-0.947v5.727H186.957z"/>
			<path d="M196.649,105.457h9.689v2.648h-6.675v4.65h5.877v2.584h-5.877v2.11h6.976v2.647h-9.99V105.457z"/>
			<path d="M208.709,117.213l2.454-1.421c0.646,1.055,1.486,1.83,2.972,1.83c1.249,0,2.046-0.624,2.046-1.485
				c0-1.034-0.818-1.4-2.197-2.003l-0.753-0.323c-2.175-0.925-3.616-2.088-3.616-4.543c0-2.261,1.722-3.983,4.412-3.983
				c1.917,0,3.295,0.668,4.286,2.412l-2.348,1.507c-0.516-0.926-1.077-1.292-1.938-1.292c-0.882,0-1.44,0.56-1.44,1.292
				c0,0.905,0.559,1.271,1.851,1.83l0.754,0.323c2.562,1.098,4.004,2.218,4.004,4.737c0,2.713-2.132,4.198-4.995,4.198
				C211.4,120.292,209.593,118.957,208.709,117.213z"/>
			<path d="M226.905,105.328h0.259l6.695,14.77h-3.164l-0.689-1.657h-5.942l-0.689,1.657h-2.906L226.905,105.328z M228.93,115.921
				l-1.055-2.54c-0.432-1.034-0.883-2.627-0.883-2.627s-0.431,1.593-0.861,2.627l-1.056,2.54H228.93z"/>
		</g>
	</g>
	<g>
		<path d="M138.312,49.521V35.116c0-3.156-2.583-5.738-5.739-5.738h-6.963h-2.295h-0.327v-2.902c0-1.599-1.129-2.907-2.51-2.907
			h-7.53c-1.38,0-2.509,1.309-2.509,2.907v2.902h-2.043h-2.629h-4.737c-3.155,0-5.738,2.582-5.738,5.738v29.23
			c0,3.156,2.583,5.738,5.738,5.738h17.037c0.654,10.084,9.043,18.095,19.289,18.095c10.67,0,19.353-8.683,19.353-19.354
			C156.709,58.478,148.538,50.024,138.312,49.521z M112.111,26.476c0-0.533,0.376-0.969,0.836-0.969h7.53
			c0.46,0,0.837,0.436,0.837,0.969v2.902h-9.203V26.476z M97.586,35.116c0-1.893,1.55-3.443,3.443-3.443h1.369h0.326h0.695h29.153
			c1.895,0,3.443,1.55,3.443,3.443v14.425c-6.578,0.454-12.254,4.199-15.394,9.609H97.586V35.116z M123.479,59.149
			c2.22-3.174,5.496-5.545,9.317-6.616c-1.743,2.102-3.134,4.317-4.156,6.616H123.479z M127.711,61.568
			c-0.642,1.973-1.025,3.995-1.131,6.048h-6.096c0.153-2.152,0.709-4.191,1.595-6.047L127.711,61.568z M118.056,67.788H103.42
			h-0.695h-0.326h-1.369c-1.893,0-3.443-1.549-3.443-3.442v-2.777h21.842C118.641,63.506,118.173,65.6,118.056,67.788z
			 M120.483,70.035h6.094c0.107,2.049,0.494,4.071,1.141,6.049h-5.639C121.193,74.226,120.637,72.188,120.483,70.035z
			 M123.479,78.503h5.174c1.024,2.294,2.419,4.511,4.162,6.62C128.985,84.056,125.702,81.682,123.479,78.503z M136.146,85.242
			c-2.025-2.131-3.633-4.392-4.812-6.739l4.812-0.001V85.242z M136.146,76.083l-5.862,0.001c-0.727-1.977-1.161-4-1.282-6.049h7.145
			V76.083z M136.146,67.616h-7.147c0.121-2.054,0.554-4.077,1.274-6.048h5.873V67.616z M136.146,59.149h-4.826
			c1.18-2.359,2.793-4.623,4.826-6.747V59.149z M152.633,61.568c0.886,1.857,1.441,3.895,1.596,6.048h-6.021
			c-0.106-2.053-0.489-4.075-1.132-6.048L152.633,61.568z M151.232,59.149h-5.087c-1.018-2.29-2.401-4.497-4.136-6.592
			C145.791,53.641,149.031,56.001,151.232,59.149z M138.565,52.327c2.068,2.146,3.707,4.436,4.901,6.822h-4.901V52.327z
			 M138.565,61.568h5.948c0.72,1.971,1.153,3.994,1.273,6.048h-7.222V61.568z M138.565,70.035h7.219
			c-0.121,2.049-0.556,4.072-1.283,6.048h-5.937L138.565,70.035z M138.564,78.502h4.887c-1.193,2.377-2.827,4.663-4.887,6.815
			V78.502z M141.991,85.099c1.734-2.103,3.121-4.312,4.142-6.597h5.1C149.027,81.655,145.779,84.019,141.991,85.099z
			 M152.633,76.083h-5.565c0.647-1.977,1.033-3.999,1.142-6.048h6.02C154.074,72.188,153.519,74.226,152.633,76.083z"/>
		<path d="M132.03,38.14v-0.901h-6.307c-4,0-7.446,2.386-9.01,5.806c-1.564-3.42-5.01-5.806-9.01-5.806h-6.308v0.901
			c0,5.465,4.447,9.912,9.912,9.912h4.506v11.098h1.801V48.051h4.506C127.584,48.051,132.03,43.604,132.03,38.14z M111.307,46.249
			c-4.167,0-7.609-3.159-8.059-7.208h4.455c4.167,0,7.609,3.159,8.059,7.208H111.307z M125.723,39.041h4.455
			c-0.449,4.049-3.891,7.208-8.058,7.208h-4.456C118.114,42.2,121.556,39.041,125.723,39.041z"/>
	</g>
</g>
</svg>
