<svg id="svg" version="1.1" width="400" height="400" viewBox="0 0 400 400" xmlns="http://www.w3.org/2000/svg" xmlns:xlink="http://www.w3.org/1999/xlink" ><g id="svgg"><path id="path0" d="" stroke="none" fill="#ffffff" fill-rule="evenodd"></path><path id="path1" d="" stroke="none" fill="#55aaaa" fill-rule="evenodd"></path><path id="path2" d="M345.600 140.754 C 345.600 140.949,344.610 141.232,343.400 141.383 C 342.190 141.534,341.200 141.825,341.200 142.029 C 341.200 142.233,340.750 142.400,340.200 142.400 C 339.650 142.400,339.199 142.535,339.199 142.700 C 339.198 142.865,338.388 143.333,337.399 143.740 C 336.409 144.146,335.600 144.641,335.600 144.840 C 335.600 145.038,335.343 145.200,335.029 145.200 C 334.715 145.200,334.104 145.650,333.671 146.200 C 333.239 146.750,332.731 147.206,332.542 147.213 C 331.977 147.235,330.589 148.537,329.777 149.808 C 329.357 150.463,328.696 151.235,328.307 151.523 C 327.918 151.810,327.600 152.311,327.600 152.635 C 327.600 152.960,327.330 153.329,327.000 153.455 C 326.670 153.582,326.400 154.026,326.400 154.443 C 326.400 154.859,326.228 155.200,326.018 155.200 C 325.808 155.200,325.518 155.830,325.374 156.600 C 325.229 157.370,324.951 158.000,324.755 158.000 C 324.560 158.000,324.400 158.324,324.400 158.720 C 324.400 159.116,324.213 159.627,323.985 159.855 C 323.757 160.083,323.460 161.829,323.326 163.735 C 323.191 165.641,322.928 167.200,322.741 167.200 C 322.553 167.200,322.400 168.370,322.400 169.800 C 322.400 171.230,322.555 172.400,322.744 172.400 C 322.933 172.400,323.185 173.969,323.305 175.887 C 323.429 177.874,323.711 179.437,323.961 179.520 C 324.203 179.601,324.400 180.102,324.400 180.633 C 324.400 181.165,324.572 181.600,324.782 181.600 C 324.992 181.600,325.282 182.230,325.426 183.000 C 325.571 183.770,325.849 184.400,326.045 184.400 C 326.240 184.400,326.400 184.670,326.400 185.000 C 326.400 185.330,326.580 185.600,326.800 185.600 C 327.020 185.600,327.200 185.863,327.200 186.184 C 327.200 186.767,334.188 194.000,334.751 194.000 C 334.915 194.000,335.408 194.315,335.846 194.700 C 336.931 195.652,338.060 196.376,338.900 196.658 C 339.285 196.788,339.600 197.052,339.600 197.247 C 339.600 197.441,339.960 197.600,340.400 197.600 C 340.840 197.600,341.200 197.777,341.200 197.992 C 341.200 198.208,341.650 198.498,342.200 198.636 C 342.750 198.774,343.200 199.047,343.200 199.243 C 343.200 199.440,343.470 199.600,343.800 199.600 C 344.130 199.600,344.400 199.772,344.400 199.982 C 344.400 200.192,345.030 200.482,345.800 200.626 C 346.570 200.771,347.200 201.049,347.200 201.245 C 347.200 201.440,347.470 201.600,347.800 201.600 C 348.130 201.600,348.400 201.780,348.400 202.000 C 348.400 202.220,348.657 202.400,348.971 202.400 C 349.286 202.400,349.781 202.632,350.071 202.915 C 350.651 203.480,353.312 204.800,353.872 204.800 C 354.065 204.800,354.483 205.160,354.800 205.600 C 355.117 206.040,355.580 206.400,355.829 206.400 C 356.683 206.400,361.238 211.291,361.472 212.458 C 361.597 213.086,361.858 213.600,362.050 213.600 C 362.243 213.600,362.400 214.050,362.400 214.600 C 362.400 215.150,362.580 215.600,362.800 215.600 C 363.020 215.600,363.200 216.230,363.200 217.000 C 363.200 217.770,363.020 218.400,362.800 218.400 C 362.580 218.400,362.400 219.019,362.400 219.776 C 362.400 220.533,362.220 221.264,362.000 221.400 C 361.780 221.536,361.600 221.984,361.600 222.395 C 361.600 222.806,361.330 223.413,361.000 223.743 C 360.670 224.073,360.400 224.446,360.400 224.571 C 360.400 224.869,358.869 226.400,358.571 226.400 C 358.446 226.400,358.073 226.670,357.743 227.000 C 357.413 227.330,356.796 227.600,356.371 227.600 C 355.947 227.600,355.600 227.780,355.600 228.000 C 355.600 228.220,355.060 228.400,354.400 228.400 C 353.740 228.400,353.200 228.580,353.200 228.800 C 353.200 229.037,351.733 229.200,349.600 229.200 C 347.467 229.200,346.000 229.037,346.000 228.800 C 346.000 228.580,345.619 228.400,345.154 228.400 C 344.303 228.400,340.374 227.177,340.000 226.796 C 339.890 226.684,339.080 226.234,338.200 225.796 C 337.320 225.358,336.309 224.685,335.953 224.300 C 335.597 223.915,335.111 223.600,334.872 223.600 C 334.634 223.600,333.090 222.252,331.442 220.604 C 328.568 217.729,327.200 217.097,327.200 218.643 C 327.200 218.949,327.020 219.200,326.800 219.200 C 326.580 219.200,326.400 219.470,326.400 219.800 C 326.400 220.130,326.232 220.400,326.027 220.400 C 325.822 220.400,325.528 220.805,325.373 221.300 C 325.219 221.795,324.981 222.290,324.846 222.400 C 324.451 222.721,323.597 224.140,323.342 224.900 C 323.212 225.285,322.948 225.600,322.753 225.600 C 322.559 225.600,322.400 225.960,322.400 226.400 C 322.400 226.840,322.240 227.200,322.043 227.200 C 321.847 227.200,321.574 227.650,321.436 228.200 C 321.298 228.750,321.008 229.200,320.792 229.200 C 320.577 229.200,320.400 229.470,320.400 229.800 C 320.400 230.130,320.240 230.400,320.043 230.400 C 319.847 230.400,319.574 230.850,319.436 231.400 C 319.298 231.950,319.008 232.400,318.792 232.400 C 318.239 232.400,318.305 233.519,318.900 234.236 C 320.310 235.935,322.211 237.600,322.740 237.600 C 322.946 237.600,323.218 237.870,323.345 238.200 C 323.471 238.530,323.897 238.800,324.291 238.800 C 324.685 238.800,325.222 239.144,325.485 239.564 C 325.747 239.984,326.510 240.449,327.181 240.596 C 327.851 240.743,328.400 241.029,328.400 241.232 C 328.400 241.434,328.670 241.600,329.000 241.600 C 329.330 241.600,329.600 241.760,329.600 241.955 C 329.600 242.151,330.230 242.429,331.000 242.574 C 331.770 242.718,332.400 242.988,332.400 243.173 C 332.400 243.358,332.895 243.605,333.500 243.722 C 334.105 243.839,335.320 244.125,336.200 244.358 C 337.080 244.590,338.385 244.785,339.100 244.790 C 339.815 244.796,340.400 244.980,340.400 245.200 C 340.400 245.453,343.200 245.600,348.000 245.600 C 352.180 245.600,355.600 245.443,355.600 245.252 C 355.600 245.060,356.675 244.782,357.988 244.633 C 359.301 244.485,360.482 244.191,360.611 243.982 C 360.741 243.772,361.197 243.600,361.624 243.600 C 362.051 243.600,362.400 243.420,362.400 243.200 C 362.400 242.980,362.747 242.800,363.171 242.800 C 363.596 242.800,364.213 242.530,364.543 242.200 C 364.873 241.870,365.426 241.600,365.771 241.600 C 366.117 241.600,366.400 241.420,366.400 241.200 C 366.400 240.980,366.657 240.800,366.971 240.800 C 367.285 240.800,367.896 240.350,368.329 239.800 C 368.761 239.250,369.304 238.800,369.534 238.800 C 370.326 238.800,373.921 234.883,374.673 233.200 C 374.821 232.870,375.049 232.510,375.180 232.400 C 375.742 231.929,376.800 229.978,376.800 229.414 C 376.800 229.076,376.980 228.800,377.200 228.800 C 377.420 228.800,377.600 228.365,377.600 227.833 C 377.600 227.302,377.778 226.807,377.996 226.733 C 378.214 226.660,378.510 225.475,378.653 224.100 C 378.797 222.725,379.068 221.600,379.257 221.600 C 379.446 221.600,379.600 218.990,379.600 215.800 C 379.600 212.610,379.443 210.000,379.252 210.000 C 379.060 210.000,378.781 208.920,378.632 207.600 C 378.482 206.280,378.189 205.200,377.980 205.200 C 377.771 205.200,377.600 204.750,377.600 204.200 C 377.600 203.650,377.420 203.200,377.200 203.200 C 376.980 203.200,376.800 202.945,376.800 202.632 C 376.800 201.919,375.502 199.606,375.100 199.603 C 374.935 199.601,374.800 199.360,374.800 199.066 C 374.800 198.772,374.305 198.064,373.700 197.491 C 373.095 196.919,372.384 196.214,372.119 195.925 C 371.855 195.636,371.405 195.184,371.119 194.919 C 370.834 194.655,370.397 194.205,370.149 193.919 C 369.901 193.634,369.189 193.040,368.566 192.600 C 367.944 192.160,367.112 191.485,366.717 191.100 C 366.323 190.715,365.749 190.400,365.443 190.400 C 365.136 190.400,364.782 190.130,364.655 189.800 C 364.529 189.470,364.142 189.200,363.796 189.200 C 363.450 189.200,362.773 188.833,362.291 188.385 C 361.810 187.936,361.007 187.466,360.508 187.341 C 360.009 187.216,359.600 186.953,359.600 186.757 C 359.600 186.560,359.330 186.400,359.000 186.400 C 358.670 186.400,358.400 186.220,358.400 186.000 C 358.400 185.780,358.053 185.600,357.629 185.600 C 357.204 185.600,356.619 185.375,356.329 185.099 C 356.038 184.824,355.080 184.239,354.200 183.799 C 353.320 183.360,352.540 182.865,352.467 182.700 C 352.393 182.535,351.988 182.400,351.567 182.400 C 351.145 182.400,350.800 182.240,350.800 182.043 C 350.800 181.847,350.350 181.574,349.800 181.436 C 349.250 181.298,348.800 181.008,348.800 180.792 C 348.800 180.577,348.530 180.400,348.200 180.400 C 347.870 180.400,347.600 180.232,347.600 180.027 C 347.600 179.822,347.222 179.534,346.761 179.388 C 345.668 179.041,341.600 174.938,341.600 174.182 C 341.600 173.862,341.462 173.600,341.294 173.600 C 341.126 173.600,340.676 172.721,340.294 171.646 C 339.572 169.614,339.342 165.600,339.948 165.600 C 340.139 165.600,340.397 164.974,340.521 164.208 C 340.645 163.443,341.164 162.372,341.674 161.828 C 342.183 161.284,342.816 160.605,343.081 160.319 C 344.028 159.296,344.747 158.828,345.766 158.573 C 346.335 158.430,346.800 158.153,346.800 157.957 C 346.800 157.760,347.610 157.600,348.600 157.600 C 349.590 157.600,350.400 157.420,350.400 157.200 C 350.400 156.980,350.760 156.800,351.200 156.800 C 351.640 156.800,352.000 156.980,352.000 157.200 C 352.000 157.420,352.799 157.600,353.776 157.600 C 354.753 157.600,355.654 157.764,355.778 157.965 C 355.903 158.166,356.723 158.452,357.602 158.600 C 358.481 158.749,359.200 159.034,359.200 159.235 C 359.200 159.436,359.470 159.600,359.800 159.600 C 360.130 159.600,360.400 159.768,360.400 159.973 C 360.400 160.178,360.784 160.468,361.253 160.617 C 361.722 160.766,363.143 161.948,364.411 163.244 C 366.816 165.701,368.156 166.199,368.600 164.800 C 368.740 164.360,369.022 164.000,369.227 164.000 C 369.432 164.000,369.600 163.730,369.600 163.400 C 369.600 163.070,369.768 162.800,369.973 162.800 C 370.178 162.800,370.474 162.395,370.630 161.900 C 370.787 161.405,371.249 160.765,371.657 160.477 C 372.066 160.190,372.400 159.689,372.400 159.365 C 372.400 159.040,372.670 158.671,373.000 158.545 C 373.330 158.418,373.600 158.055,373.600 157.738 C 373.600 157.421,374.005 156.764,374.500 156.278 C 375.536 155.261,376.321 154.105,376.658 153.100 C 376.788 152.715,377.052 152.400,377.247 152.400 C 377.441 152.400,377.600 152.031,377.600 151.581 C 377.600 150.726,374.186 147.200,373.358 147.200 C 373.098 147.200,372.779 146.921,372.648 146.581 C 372.517 146.241,371.868 145.773,371.205 145.542 C 370.542 145.311,370.000 144.959,370.000 144.761 C 370.000 144.562,369.730 144.400,369.400 144.400 C 369.070 144.400,368.800 144.228,368.800 144.018 C 368.800 143.808,368.170 143.518,367.400 143.374 C 366.630 143.229,366.000 142.951,366.000 142.755 C 366.000 142.560,365.676 142.400,365.280 142.400 C 364.884 142.400,364.381 142.221,364.162 142.002 C 363.944 141.784,362.648 141.488,361.282 141.346 C 359.917 141.203,358.800 140.932,358.800 140.743 C 358.800 140.554,355.830 140.400,352.200 140.400 C 348.570 140.400,345.600 140.559,345.600 140.754 M25.200 193.000 L 25.200 244.400 33.400 244.400 L 41.600 244.400 41.600 193.000 L 41.600 141.600 33.400 141.600 L 25.200 141.600 25.200 193.000 M69.200 142.400 C 69.200 142.840,69.020 143.200,68.800 143.200 C 68.580 143.200,68.400 143.470,68.400 143.800 C 68.400 144.130,68.220 144.400,68.000 144.400 C 67.780 144.400,67.600 144.657,67.600 144.971 C 67.600 145.286,67.368 145.781,67.085 146.071 C 66.477 146.695,65.200 149.330,65.200 149.960 C 65.200 150.202,65.020 150.400,64.800 150.400 C 64.580 150.400,64.400 150.670,64.400 151.000 C 64.400 151.330,64.220 151.600,64.000 151.600 C 63.780 151.600,63.600 151.947,63.600 152.371 C 63.600 152.796,63.330 153.413,63.000 153.743 C 62.670 154.073,62.400 154.536,62.400 154.771 C 62.400 155.007,62.234 155.200,62.032 155.200 C 61.829 155.200,61.545 155.740,61.400 156.400 C 61.255 157.060,60.971 157.600,60.768 157.600 C 60.566 157.600,60.400 157.960,60.400 158.400 C 60.400 158.840,60.220 159.200,60.000 159.200 C 59.780 159.200,59.600 159.457,59.600 159.771 C 59.600 160.086,59.375 160.589,59.100 160.890 C 58.358 161.701,57.200 163.982,57.200 164.632 C 57.200 164.945,57.020 165.200,56.800 165.200 C 56.580 165.200,56.400 165.470,56.400 165.800 C 56.400 166.130,56.240 166.400,56.043 166.400 C 55.847 166.400,55.574 166.850,55.436 167.400 C 55.298 167.950,55.008 168.400,54.792 168.400 C 54.577 168.400,54.400 168.655,54.400 168.968 C 54.400 169.531,53.216 172.016,52.764 172.400 C 52.635 172.510,52.195 173.365,51.787 174.300 C 51.380 175.235,50.941 176.000,50.813 176.000 C 50.684 176.000,50.224 176.808,49.790 177.796 C 49.355 178.784,48.865 179.594,48.700 179.596 C 48.535 179.598,48.400 179.960,48.400 180.400 C 48.400 180.840,48.220 181.200,48.000 181.200 C 47.780 181.200,47.600 181.457,47.600 181.771 C 47.600 182.086,47.375 182.589,47.100 182.890 C 46.358 183.701,45.200 185.982,45.200 186.632 C 45.200 186.945,45.020 187.200,44.800 187.200 C 44.580 187.200,44.400 187.470,44.400 187.800 C 44.400 188.130,44.240 188.400,44.043 188.400 C 43.847 188.400,43.574 188.850,43.436 189.400 C 43.298 189.950,43.008 190.400,42.792 190.400 C 42.577 190.400,42.400 191.300,42.400 192.400 C 42.400 193.500,42.566 194.400,42.768 194.400 C 42.971 194.400,43.255 194.940,43.400 195.600 C 43.545 196.260,43.829 196.800,44.032 196.800 C 44.234 196.800,44.400 197.160,44.400 197.600 C 44.400 198.040,44.560 198.400,44.757 198.400 C 44.953 198.400,45.226 198.850,45.364 199.400 C 45.502 199.950,45.792 200.400,46.008 200.400 C 46.223 200.400,46.400 200.655,46.400 200.967 C 46.400 201.278,46.535 201.593,46.700 201.667 C 47.135 201.860,48.400 204.365,48.400 205.032 C 48.400 205.345,48.577 205.600,48.792 205.600 C 49.008 205.600,49.298 206.050,49.436 206.600 C 49.574 207.150,49.847 207.600,50.043 207.600 C 50.240 207.600,50.400 207.870,50.400 208.200 C 50.400 208.530,50.560 208.800,50.757 208.800 C 50.953 208.800,51.226 209.250,51.364 209.800 C 51.502 210.350,51.792 210.800,52.008 210.800 C 52.223 210.800,52.400 211.160,52.400 211.600 C 52.400 212.040,52.566 212.400,52.768 212.400 C 52.971 212.400,53.255 212.940,53.400 213.600 C 53.545 214.260,53.829 214.800,54.032 214.800 C 54.234 214.800,54.400 214.993,54.400 215.229 C 54.400 215.464,54.670 215.927,55.000 216.257 C 55.330 216.587,55.600 217.204,55.600 217.629 C 55.600 218.053,55.780 218.400,56.000 218.400 C 56.220 218.400,56.400 218.670,56.400 219.000 C 56.400 219.330,56.560 219.600,56.757 219.600 C 56.953 219.600,57.226 220.050,57.364 220.600 C 57.502 221.150,57.792 221.600,58.008 221.600 C 58.223 221.600,58.400 221.870,58.400 222.200 C 58.400 222.530,58.560 222.800,58.755 222.800 C 58.951 222.800,59.229 223.430,59.374 224.200 C 59.518 224.970,59.808 225.600,60.018 225.600 C 60.228 225.600,60.400 225.870,60.400 226.200 C 60.400 226.530,60.577 226.800,60.792 226.800 C 61.008 226.800,61.298 227.250,61.436 227.800 C 61.574 228.350,61.847 228.800,62.043 228.800 C 62.240 228.800,62.400 229.160,62.400 229.600 C 62.400 230.040,62.560 230.400,62.757 230.400 C 62.953 230.400,63.216 230.809,63.341 231.308 C 63.466 231.807,63.936 232.610,64.385 233.091 C 64.833 233.573,65.200 234.082,65.200 234.223 C 65.200 234.707,66.570 237.400,67.085 237.929 C 67.368 238.219,67.600 238.714,67.600 239.029 C 67.600 239.343,67.780 239.600,68.000 239.600 C 68.220 239.600,68.400 239.870,68.400 240.200 C 68.400 240.530,68.580 240.800,68.800 240.800 C 69.020 240.800,69.200 241.055,69.200 241.368 C 69.200 241.680,69.515 242.489,69.900 243.165 L 70.600 244.395 80.752 244.397 L 90.905 244.400 90.662 242.903 C 90.528 242.080,90.235 241.345,90.009 241.270 C 89.784 241.195,89.600 240.878,89.600 240.567 C 89.600 240.255,89.455 240.000,89.277 240.000 C 89.099 240.000,88.617 239.235,88.205 238.300 C 87.792 237.365,87.218 236.362,86.928 236.071 C 86.637 235.781,86.400 235.286,86.400 234.971 C 86.400 234.657,86.220 234.400,86.000 234.400 C 85.780 234.400,85.600 234.130,85.600 233.800 C 85.600 233.470,85.423 233.200,85.208 233.200 C 84.992 233.200,84.702 232.750,84.564 232.200 C 84.426 231.650,84.153 231.200,83.957 231.200 C 83.760 231.200,83.600 230.930,83.600 230.600 C 83.600 230.270,83.455 230.000,83.277 230.000 C 83.099 230.000,82.617 229.235,82.205 228.300 C 81.792 227.365,81.218 226.362,80.928 226.071 C 80.637 225.781,80.400 225.286,80.400 224.971 C 80.400 224.657,80.220 224.400,80.000 224.400 C 79.780 224.400,79.600 224.130,79.600 223.800 C 79.600 223.470,79.423 223.200,79.208 223.200 C 78.992 223.200,78.702 222.750,78.564 222.200 C 78.426 221.650,78.153 221.200,77.957 221.200 C 77.760 221.200,77.600 220.930,77.600 220.600 C 77.600 220.270,77.455 220.000,77.277 220.000 C 77.099 220.000,76.617 219.235,76.205 218.300 C 75.792 217.365,75.218 216.362,74.928 216.071 C 74.637 215.781,74.400 215.286,74.400 214.971 C 74.400 214.657,74.220 214.400,74.000 214.400 C 73.780 214.400,73.600 214.130,73.600 213.800 C 73.600 213.470,73.423 213.200,73.208 213.200 C 72.992 213.200,72.702 212.750,72.564 212.200 C 72.426 211.650,72.153 211.200,71.957 211.200 C 71.760 211.200,71.600 210.930,71.600 210.600 C 71.600 210.270,71.455 210.000,71.277 210.000 C 71.099 210.000,70.617 209.235,70.205 208.300 C 69.792 207.365,69.218 206.362,68.928 206.071 C 68.637 205.781,68.400 205.286,68.400 204.971 C 68.400 204.657,68.220 204.400,68.000 204.400 C 67.780 204.400,67.600 204.130,67.600 203.800 C 67.600 203.470,67.423 203.200,67.208 203.200 C 66.992 203.200,66.702 202.750,66.564 202.200 C 66.426 201.650,66.153 201.200,65.957 201.200 C 65.760 201.200,65.600 200.930,65.600 200.600 C 65.600 200.270,65.423 200.000,65.208 200.000 C 64.992 200.000,64.701 199.546,64.562 198.991 C 64.423 198.436,63.993 197.761,63.608 197.491 C 63.223 197.221,62.787 196.450,62.639 195.778 C 62.491 195.105,62.017 194.301,61.585 193.989 C 60.760 193.395,60.447 190.800,61.200 190.800 C 61.420 190.800,61.600 190.530,61.600 190.200 C 61.600 189.870,61.780 189.600,62.000 189.600 C 62.220 189.600,62.400 189.343,62.400 189.029 C 62.400 188.714,62.632 188.219,62.915 187.929 C 63.430 187.400,64.800 184.707,64.800 184.223 C 64.800 184.082,65.167 183.573,65.615 183.091 C 66.064 182.610,66.534 181.807,66.659 181.308 C 66.784 180.809,67.047 180.400,67.243 180.400 C 67.440 180.400,67.600 180.040,67.600 179.600 C 67.600 179.160,67.777 178.800,67.992 178.800 C 68.208 178.800,68.498 178.350,68.636 177.800 C 68.774 177.250,69.047 176.800,69.243 176.800 C 69.440 176.800,69.600 176.530,69.600 176.200 C 69.600 175.870,69.780 175.600,70.000 175.600 C 70.220 175.600,70.400 175.343,70.400 175.029 C 70.400 174.714,70.632 174.219,70.915 173.929 C 71.523 173.305,72.800 170.670,72.800 170.040 C 72.800 169.798,72.980 169.600,73.200 169.600 C 73.420 169.600,73.600 169.330,73.600 169.000 C 73.600 168.670,73.777 168.400,73.992 168.400 C 74.208 168.400,74.498 167.950,74.636 167.400 C 74.774 166.850,75.047 166.400,75.243 166.400 C 75.440 166.400,75.600 166.040,75.600 165.600 C 75.600 165.160,75.760 164.800,75.957 164.800 C 76.153 164.800,76.426 164.350,76.564 163.800 C 76.702 163.250,76.992 162.800,77.208 162.800 C 77.423 162.800,77.600 162.530,77.600 162.200 C 77.600 161.870,77.766 161.600,77.968 161.600 C 78.171 161.600,78.462 161.030,78.615 160.333 C 78.768 159.637,79.239 158.695,79.662 158.241 C 80.085 157.787,80.534 157.007,80.659 156.508 C 80.784 156.009,81.010 155.600,81.161 155.600 C 81.312 155.600,81.770 154.790,82.178 153.800 C 82.587 152.810,83.073 152.000,83.260 152.000 C 83.447 152.000,83.600 151.730,83.600 151.400 C 83.600 151.070,83.760 150.800,83.957 150.800 C 84.153 150.800,84.437 150.307,84.588 149.704 C 84.740 149.101,84.988 148.516,85.141 148.404 C 85.700 147.993,86.800 146.011,86.800 145.414 C 86.800 145.076,86.980 144.800,87.200 144.800 C 87.420 144.800,87.600 144.530,87.600 144.200 C 87.600 143.870,87.780 143.600,88.000 143.600 C 88.220 143.600,88.400 143.150,88.400 142.600 L 88.400 141.600 78.800 141.600 C 69.467 141.600,69.200 141.622,69.200 142.400 M101.200 193.000 L 101.200 244.400 119.000 244.400 C 130.600 244.400,136.800 244.261,136.800 244.000 C 136.800 243.780,137.700 243.600,138.800 243.600 C 139.900 243.600,140.800 243.420,140.800 243.200 C 140.800 242.980,141.336 242.800,141.992 242.800 C 143.161 242.800,146.406 241.713,146.800 241.189 C 146.910 241.043,147.529 240.793,148.176 240.635 C 148.823 240.476,149.633 240.024,149.976 239.630 C 150.319 239.237,150.996 238.789,151.480 238.637 C 151.963 238.484,152.470 238.008,152.606 237.580 C 152.743 237.151,153.067 236.794,153.327 236.787 C 153.862 236.772,155.600 235.411,155.600 235.007 C 155.600 234.862,155.825 234.492,156.100 234.185 C 157.287 232.862,157.600 232.409,157.600 232.017 C 157.600 231.788,157.772 231.600,157.982 231.600 C 158.192 231.600,158.482 230.970,158.626 230.200 C 158.771 229.430,159.049 228.800,159.245 228.800 C 159.440 228.800,159.600 228.530,159.600 228.200 C 159.600 227.870,159.763 227.600,159.962 227.600 C 160.162 227.600,160.449 226.700,160.600 225.600 C 160.751 224.500,161.038 223.600,161.238 223.600 C 161.437 223.600,161.600 222.891,161.600 222.024 C 161.600 221.157,161.780 220.336,162.000 220.200 C 162.239 220.052,162.400 217.463,162.400 213.776 C 162.400 209.925,162.249 207.600,162.000 207.600 C 161.780 207.600,161.600 206.880,161.600 206.000 C 161.600 205.120,161.443 204.400,161.251 204.400 C 161.059 204.400,160.787 203.680,160.646 202.800 C 160.506 201.920,160.213 201.200,159.995 201.200 C 159.778 201.200,159.600 200.840,159.600 200.400 C 159.600 199.960,159.441 199.600,159.247 199.600 C 159.052 199.600,158.788 199.285,158.658 198.900 C 158.185 197.492,155.514 194.400,154.769 194.400 C 154.566 194.400,154.400 194.223,154.400 194.008 C 154.400 193.792,153.950 193.502,153.400 193.364 C 152.850 193.226,152.400 192.953,152.400 192.757 C 152.400 192.560,152.040 192.400,151.600 192.400 C 151.160 192.400,150.800 192.222,150.800 192.005 C 150.800 191.787,150.080 191.494,149.200 191.354 C 148.320 191.213,147.606 190.986,147.613 190.849 C 147.640 190.344,149.144 188.800,149.608 188.800 C 150.194 188.800,153.600 185.403,153.600 184.819 C 153.600 184.589,153.780 184.400,154.000 184.400 C 154.220 184.400,154.400 184.053,154.400 183.629 C 154.400 183.204,154.670 182.587,155.000 182.257 C 155.330 181.927,155.600 181.374,155.600 181.029 C 155.600 180.683,155.774 180.400,155.986 180.400 C 156.199 180.400,156.492 179.500,156.638 178.400 C 156.784 177.300,157.060 176.400,157.252 176.400 C 157.443 176.400,157.600 175.421,157.600 174.224 C 157.600 173.027,157.780 171.936,158.000 171.800 C 158.220 171.664,158.400 169.943,158.400 167.976 C 158.400 165.859,158.237 164.400,158.000 164.400 C 157.778 164.400,157.600 163.333,157.600 162.000 C 157.600 160.680,157.443 159.600,157.252 159.600 C 157.060 159.600,156.785 158.707,156.640 157.616 C 156.495 156.525,156.202 155.525,155.988 155.393 C 155.775 155.261,155.600 154.803,155.600 154.376 C 155.600 153.949,155.440 153.600,155.243 153.600 C 155.047 153.600,154.774 153.150,154.636 152.600 C 154.498 152.050,154.208 151.600,153.992 151.600 C 153.777 151.600,153.600 151.397,153.600 151.149 C 153.600 150.431,148.418 145.620,147.359 145.354 C 146.832 145.222,146.400 144.953,146.400 144.757 C 146.400 144.560,146.055 144.400,145.633 144.400 C 145.212 144.400,144.801 144.202,144.720 143.961 C 144.640 143.719,143.725 143.426,142.687 143.309 C 141.649 143.192,140.800 142.939,140.800 142.748 C 140.800 142.557,140.080 142.400,139.200 142.400 C 138.320 142.400,137.600 142.220,137.600 142.000 C 137.600 141.739,131.267 141.600,119.400 141.600 L 101.200 141.600 101.200 193.000 M179.600 193.000 L 179.600 244.400 188.000 244.400 L 196.400 244.400 196.400 193.000 L 196.400 141.600 188.000 141.600 L 179.600 141.600 179.600 193.000 M217.600 193.000 L 217.600 244.400 225.200 244.400 L 232.800 244.400 232.853 204.500 C 232.890 176.398,233.024 165.221,233.309 166.700 C 233.531 167.855,233.867 168.800,234.056 168.800 C 234.245 168.800,234.400 169.250,234.400 169.800 C 234.400 170.350,234.563 170.800,234.762 170.800 C 234.962 170.800,235.249 171.700,235.400 172.800 C 235.551 173.900,235.838 174.800,236.038 174.800 C 236.237 174.800,236.400 175.430,236.400 176.200 C 236.400 176.970,236.563 177.600,236.762 177.600 C 236.962 177.600,237.249 178.500,237.400 179.600 C 237.551 180.700,237.838 181.600,238.038 181.600 C 238.237 181.600,238.400 182.050,238.400 182.600 C 238.400 183.150,238.563 183.600,238.762 183.600 C 238.962 183.600,239.249 184.500,239.400 185.600 C 239.551 186.700,239.838 187.600,240.038 187.600 C 240.237 187.600,240.400 188.050,240.400 188.600 C 240.400 189.150,240.557 189.600,240.748 189.600 C 240.940 189.600,241.215 190.493,241.360 191.584 C 241.505 192.675,241.798 193.675,242.012 193.807 C 242.225 193.939,242.400 194.577,242.400 195.224 C 242.400 195.871,242.560 196.400,242.755 196.400 C 242.950 196.400,243.230 197.206,243.378 198.191 C 243.525 199.176,243.816 200.086,244.023 200.214 C 244.230 200.342,244.400 200.887,244.400 201.424 C 244.400 201.961,244.563 202.400,244.762 202.400 C 244.962 202.400,245.249 203.300,245.400 204.400 C 245.551 205.499,245.838 206.500,246.037 206.623 C 246.237 206.746,246.400 207.287,246.400 207.824 C 246.400 208.361,246.563 208.800,246.762 208.800 C 246.962 208.800,247.249 209.700,247.400 210.800 C 247.551 211.900,247.838 212.800,248.038 212.800 C 248.237 212.800,248.400 213.250,248.400 213.800 C 248.400 214.350,248.563 214.800,248.762 214.800 C 248.962 214.800,249.249 215.700,249.400 216.800 C 249.551 217.900,249.838 218.800,250.038 218.800 C 250.237 218.800,250.400 219.250,250.400 219.800 C 250.400 220.350,250.580 220.800,250.800 220.800 C 251.020 220.800,251.200 221.346,251.200 222.013 C 251.200 222.680,251.470 223.872,251.800 224.662 C 252.130 225.451,252.400 226.436,252.400 226.849 C 252.400 227.262,252.580 227.600,252.800 227.600 C 253.020 227.600,253.200 227.933,253.200 228.340 C 253.200 228.747,253.398 229.647,253.639 230.340 L 254.078 231.600 261.439 231.600 L 268.800 231.600 268.800 230.600 C 268.800 230.050,268.980 229.600,269.200 229.600 C 269.420 229.600,269.600 229.150,269.600 228.600 C 269.600 228.050,269.763 227.600,269.962 227.600 C 270.162 227.600,270.449 226.700,270.600 225.600 C 270.751 224.500,271.038 223.600,271.238 223.600 C 271.437 223.600,271.600 222.970,271.600 222.200 C 271.600 221.430,271.763 220.800,271.962 220.800 C 272.162 220.800,272.449 219.900,272.600 218.800 C 272.751 217.700,273.038 216.800,273.238 216.800 C 273.437 216.800,273.600 216.350,273.600 215.800 C 273.600 215.250,273.763 214.800,273.962 214.800 C 274.162 214.800,274.449 213.900,274.600 212.800 C 274.751 211.700,275.038 210.800,275.238 210.800 C 275.437 210.800,275.600 210.350,275.600 209.800 C 275.600 209.250,275.763 208.800,275.962 208.800 C 276.162 208.800,276.449 207.900,276.600 206.800 C 276.751 205.700,277.038 204.800,277.238 204.800 C 277.437 204.800,277.600 204.361,277.600 203.824 C 277.600 203.287,277.775 202.739,277.988 202.607 C 278.202 202.475,278.495 201.475,278.640 200.384 C 278.785 199.293,279.060 198.400,279.252 198.400 C 279.443 198.400,279.600 197.961,279.600 197.424 C 279.600 196.887,279.770 196.342,279.977 196.214 C 280.184 196.086,280.475 195.176,280.622 194.191 C 280.770 193.206,281.050 192.400,281.245 192.400 C 281.440 192.400,281.600 191.961,281.600 191.424 C 281.600 190.887,281.770 190.342,281.977 190.214 C 282.184 190.086,282.475 189.176,282.622 188.191 C 282.770 187.206,283.050 186.400,283.245 186.400 C 283.440 186.400,283.600 185.961,283.600 185.424 C 283.600 184.887,283.763 184.346,283.963 184.223 C 284.162 184.100,284.449 183.099,284.600 182.000 C 284.751 180.900,285.038 180.000,285.238 180.000 C 285.437 180.000,285.600 179.561,285.600 179.024 C 285.600 178.487,285.763 177.946,285.963 177.823 C 286.162 177.700,286.449 176.699,286.600 175.600 C 286.751 174.500,287.038 173.600,287.238 173.600 C 287.437 173.600,287.600 173.150,287.600 172.600 C 287.600 172.050,287.763 171.600,287.962 171.600 C 288.162 171.600,288.449 170.700,288.600 169.600 C 289.416 163.670,289.600 170.380,289.600 206.000 L 289.600 244.400 297.600 244.400 L 305.600 244.400 305.600 193.000 L 305.600 141.600 293.571 141.600 C 279.345 141.600,280.784 141.037,279.508 147.100 C 279.265 148.255,278.916 149.200,278.733 149.200 C 278.550 149.200,278.400 149.650,278.400 150.200 C 278.400 150.750,278.237 151.200,278.038 151.200 C 277.838 151.200,277.551 152.100,277.400 153.200 C 277.249 154.300,276.962 155.200,276.762 155.200 C 276.563 155.200,276.400 155.639,276.400 156.176 C 276.400 156.713,276.225 157.261,276.012 157.393 C 275.798 157.525,275.505 158.525,275.360 159.616 C 275.215 160.707,274.940 161.600,274.748 161.600 C 274.557 161.600,274.400 162.039,274.400 162.576 C 274.400 163.113,274.230 163.658,274.023 163.786 C 273.816 163.914,273.525 164.824,273.378 165.809 C 273.230 166.794,272.950 167.600,272.755 167.600 C 272.560 167.600,272.400 168.129,272.400 168.776 C 272.400 169.423,272.225 170.061,272.012 170.193 C 271.798 170.325,271.505 171.325,271.360 172.416 C 271.215 173.507,270.940 174.400,270.748 174.400 C 270.557 174.400,270.400 174.850,270.400 175.400 C 270.400 175.950,270.237 176.400,270.038 176.400 C 269.838 176.400,269.551 177.300,269.400 178.400 C 269.249 179.500,268.962 180.400,268.762 180.400 C 268.563 180.400,268.400 180.738,268.400 181.151 C 268.400 181.564,268.130 182.549,267.800 183.338 C 267.470 184.128,267.200 185.320,267.200 185.987 C 267.200 186.654,267.020 187.200,266.800 187.200 C 266.580 187.200,266.400 187.650,266.400 188.200 C 266.400 188.750,266.237 189.200,266.038 189.200 C 265.838 189.200,265.551 190.100,265.400 191.200 C 265.249 192.300,264.962 193.200,264.762 193.200 C 264.563 193.200,264.400 193.650,264.400 194.200 C 264.400 194.750,264.233 195.200,264.029 195.200 C 263.825 195.200,263.534 196.190,263.383 197.400 C 263.232 198.610,262.949 199.600,262.754 199.600 C 262.559 199.600,262.400 200.050,262.400 200.600 C 262.400 201.150,262.220 201.600,262.000 201.600 C 261.780 201.600,261.600 201.150,261.600 200.600 C 261.600 200.050,261.440 199.600,261.245 199.600 C 261.050 199.600,260.770 198.794,260.622 197.809 C 260.475 196.824,260.184 195.914,259.977 195.786 C 259.770 195.658,259.600 195.113,259.600 194.576 C 259.600 194.039,259.437 193.600,259.238 193.600 C 259.038 193.600,258.751 192.700,258.600 191.600 C 258.449 190.501,258.162 189.500,257.963 189.377 C 257.763 189.254,257.600 188.713,257.600 188.176 C 257.600 187.639,257.437 187.200,257.238 187.200 C 257.038 187.200,256.751 186.300,256.600 185.200 C 256.449 184.100,256.162 183.200,255.962 183.200 C 255.763 183.200,255.600 182.750,255.600 182.200 C 255.600 181.650,255.437 181.200,255.238 181.200 C 255.038 181.200,254.751 180.300,254.600 179.200 C 254.449 178.100,254.162 177.200,253.962 177.200 C 253.763 177.200,253.600 176.570,253.600 175.800 C 253.600 175.030,253.437 174.400,253.238 174.400 C 253.038 174.400,252.751 173.500,252.600 172.400 C 252.449 171.300,252.162 170.400,251.962 170.400 C 251.763 170.400,251.600 169.950,251.600 169.400 C 251.600 168.850,251.437 168.400,251.238 168.400 C 251.038 168.400,250.751 167.500,250.600 166.400 C 250.449 165.300,250.162 164.400,249.962 164.400 C 249.763 164.400,249.600 163.950,249.600 163.400 C 249.600 162.850,249.443 162.400,249.252 162.400 C 249.060 162.400,248.785 161.507,248.640 160.416 C 248.495 159.325,248.202 158.325,247.988 158.193 C 247.775 158.061,247.600 157.423,247.600 156.776 C 247.600 156.129,247.440 155.600,247.245 155.600 C 247.050 155.600,246.770 154.794,246.622 153.809 C 246.475 152.824,246.184 151.914,245.977 151.786 C 245.770 151.658,245.600 151.113,245.600 150.576 C 245.600 150.039,245.437 149.600,245.238 149.600 C 245.038 149.600,244.751 148.700,244.600 147.600 C 244.449 146.501,244.162 145.500,243.963 145.377 C 243.763 145.254,243.600 144.713,243.600 144.176 C 243.600 143.639,243.420 143.200,243.200 143.200 C 242.980 143.200,242.800 142.840,242.800 142.400 C 242.800 141.617,242.533 141.600,230.200 141.600 L 217.600 141.600 217.600 193.000 M135.115 159.046 C 135.272 159.291,135.796 159.616,136.281 159.767 C 137.418 160.122,139.878 162.582,140.233 163.719 C 140.384 164.204,140.709 164.729,140.954 164.886 C 141.619 165.312,141.568 176.878,140.900 177.100 C 140.625 177.192,140.400 177.522,140.400 177.833 C 140.400 178.145,140.220 178.400,140.000 178.400 C 139.780 178.400,139.600 178.662,139.600 178.982 C 139.600 179.302,139.142 180.022,138.582 180.582 C 138.022 181.142,137.302 181.600,136.982 181.600 C 136.662 181.600,136.400 181.780,136.400 182.000 C 136.400 182.220,136.145 182.400,135.833 182.400 C 135.522 182.400,135.201 182.598,135.120 182.839 C 135.040 183.081,133.760 183.376,132.276 183.495 C 130.792 183.614,129.483 183.866,129.366 184.056 C 129.249 184.245,126.553 184.400,123.376 184.400 L 117.600 184.400 117.600 171.366 L 117.600 158.331 126.215 158.466 C 131.977 158.556,134.924 158.748,135.115 159.046 M136.312 201.137 C 136.397 201.392,136.902 201.600,137.433 201.600 C 137.965 201.600,138.400 201.780,138.400 202.000 C 138.400 202.220,138.679 202.400,139.019 202.400 C 139.824 202.400,143.600 206.176,143.600 206.981 C 143.600 207.321,143.780 207.600,144.000 207.600 C 144.220 207.600,144.400 207.855,144.400 208.167 C 144.400 208.478,144.611 208.804,144.870 208.890 C 145.546 209.115,145.563 219.279,144.887 219.504 C 144.619 219.594,144.400 219.907,144.400 220.201 C 144.400 221.687,141.954 224.907,140.466 225.379 C 139.990 225.530,139.600 225.822,139.600 226.027 C 139.600 226.232,139.345 226.400,139.033 226.400 C 138.722 226.400,138.392 226.625,138.300 226.900 C 138.175 227.278,135.631 227.432,127.867 227.530 L 117.600 227.661 117.600 213.976 L 117.600 200.291 126.879 200.483 C 133.402 200.617,136.204 200.811,136.312 201.137 " stroke="none" fill="#6ed0f6" fill-rule="evenodd"></path><path id="path3" d="" stroke="none" fill="#00ffff" fill-rule="evenodd"></path><path id="path4" d="" stroke="none" fill="#80ffff" fill-rule="evenodd"></path></g></svg>