<svg width="120" height="100" xmlns="http://www.w3.org/2000/svg">

 <g>
  <title>background</title>
  <rect fill="none" id="canvas_background" height="102" width="122" y="-1" x="-1"/>
 </g>
 <g>
  <title>Layer 1</title>
  <path id="svg_1" d="m8.204,67.54c0,0 -0.595,-3.331 1.784,-5.473c0,0 0.832,-1.918 2.171,-3.034c1.339,-1.116 3.837,-3.124 5.666,-4.194c1.829,-1.071 3.347,-2.275 4.551,-3.257c1.205,-0.981 4.685,-3.212 7.719,-4.596c3.034,-1.383 9.993,-3.926 12.313,-4.506s4.908,-0.981 5.755,-1.606c1.74,-1.829 13.162,-13.162 13.162,-13.162s0.803,0.893 0.848,2.142s-0.535,2.052 0,2.632s1.517,1.338 1.65,2.499s0.714,1.651 1.294,2.275s0.357,1.16 0,2.409c2.008,-0.178 21.281,-2.766 23.602,-2.543c2.588,-0.625 9.235,-4.506 11.02,-5.577s8.074,-4.549 8.074,-4.549s1.785,5.666 -0.669,8.878s-4.997,5.354 -4.997,6.647c0,1.294 3.971,3.124 4.863,4.551c1.339,1.427 4.64,4.372 3.123,8.7c0,0 -4.149,0 -11.733,-5.131c-7.585,-5.13 -8.924,-4.03 -12.002,-3.376s-7.451,1.19 -7.495,2.171c-0.045,0.982 0.848,3.748 0.312,4.908c-0.535,1.16 -1.473,2.275 -1.473,3.926c0,1.65 0,2.097 -0.224,2.409c-0.223,0.312 -0.4,0.982 -0.356,1.339c0.045,0.356 -0.401,0.758 -2.811,-0.402c-2.409,-1.16 -7.005,-5.22 -7.763,-4.952c-0.759,0.268 -1.25,1.249 -1.384,2.053c-0.134,0.803 -0.268,0.981 -0.848,0.937c-0.579,-0.045 -0.892,0.179 0.134,0.268c0,0 0.848,-0.268 0.536,3.748c0,0 -0.134,3.123 -3.437,2.186c-3.301,-0.937 -6.87,-1.918 -6.87,-1.918s-0.938,-1.16 -2.855,-0.714s-12.804,3.078 -16.15,3.435c-3.346,0.357 -4.595,0.446 -6.87,1.562c-3.123,0.58 -12.403,0 -12.761,0.536c-0.356,0.535 0.179,1.115 0.625,1.383c0.446,0.268 -0.178,0.58 -1.562,-0.401c-1.115,-0.401 -2.275,-0.044 -3.123,-0.357s-3.765,-0.512 -3.819,-1.846z" fill="#436461"/>
  <path id="svg_5" d="m30.243988,46.5" opacity="0.5" stroke-width="1.5" stroke="#000" fill="#fff"/>
 </g>
</svg>
