<?xml version="1.0" encoding="UTF-8"?>
<!DOCTYPE svg PUBLIC "-//W3C//DTD SVG 1.1//EN" "http://www.w3.org/Graphics/SVG/1.1/DTD/svg11.dtd">
<svg version="1.1" xmlns="http://www.w3.org/2000/svg" xmlns:xlink="http://www.w3.org/1999/xlink" x="0" y="0" width="1024" height="400" viewBox="0, 0, 1024, 400">
  <defs>
    <linearGradient id="Gradient_1" gradientUnits="userSpaceOnUse" x1="390.883" y1="350.349" x2="386.098" y2="47.058">
      <stop offset="0" stop-color="#589632"/>
      <stop offset="1" stop-color="#93B023"/>
    </linearGradient>
    <linearGradient id="Gradient_2" gradientUnits="userSpaceOnUse" x1="297.195" y1="355.082" x2="292.451" y2="54.323">
      <stop offset="0" stop-color="#589632"/>
      <stop offset="1" stop-color="#93B023"/>
    </linearGradient>
  </defs>
  <g id="Layer_1">
    <path d="M307.335,207.351 L352.873,207.351 L314.332,170.595 L267.113,170.595 L267.113,214.358 L307.335,253.027 z" fill="#EE7913" id="polygon3"/>
    <path d="M453.394,303.206 L372.145,225.728 L326.381,225.728 L326.381,271.342 L404.242,346.193 L453.394,346.193 z" fill="url(#Gradient_1)" id="polygon10"/>
    <path d="M326.381,225.728 L372.145,225.728 L352.873,207.351 L307.335,207.351 L307.335,253.027 L326.381,271.342 z" fill="#F0E64A" id="polygon12"/>
    <path d="M316.881,286.946 C309.978,288.479 302.807,289.311 295.409,289.311 C242.479,289.311 197.459,247.328 197.459,192.893 C197.459,138.457 241.978,97.395 295.409,97.395 C348.833,97.395 391.372,138.45 391.372,192.893 C391.372,201.741 390.231,210.264 388.118,218.333 L437.107,265.582 C449.738,244.234 456.805,219.411 456.805,192.527 C456.805,108.624 387.39,45.807 294.418,45.807 C201.867,45.807 132.457,108.215 132.457,192.527 C132.457,277.249 201.867,340.899 294.418,340.899 C318.308,340.899 340.637,336.66 360.638,328.945 L316.881,286.946 z" fill="url(#Gradient_2)" id="path19"/>
    <path d="M267.113,170.595 L453.394,346.193 L453.394,303.206 L372.145,225.728 L352.873,207.35 L314.332,170.595 z" fill="#FFFFFF" fill-opacity="0.172" id="polygon4153"/>
    <path d="M733.466,31.578 C721.946,31.525 712.286,38.285 706.352,47.485 C700.728,58.427 705.273,71.317 705.446,83.418 C707.999,97.272 705.34,112.811 710.007,125.697 C709.361,135.876 720.525,138.311 729.306,143.884 C738.679,149.173 745.008,142.663 750.141,138.172 C764.563,130.299 762.443,114.495 764.986,101.154 C766.176,85.831 768.598,70.474 768.404,55.128 C766.99,46.179 758.904,38.894 751.79,34.253 C745.871,33.096 739.145,30.422 733.466,31.578 z M606.761,92.484 C597.996,94.179 592.381,98.722 585.977,105.308 C577.699,113.252 579.87,125.968 580.528,136.705 C584.674,145.61 593.266,153.892 603.562,157.246 C624.293,166.15 645.367,176.937 666.065,184.25 C676.185,181.015 686.004,175.362 696.002,171.071 C695.959,160.624 694.931,149.83 692.838,139.938 C685.422,130.332 669.777,123.69 659.265,115.141 C646.95,108.538 636.938,96.265 623.596,93.058 C618.663,90.746 612.022,91.452 606.761,92.484 z M849.226,92.484 C835.635,96.15 825.296,108.287 812.976,115.387 C802.306,124.253 787.501,130.666 779.102,140.732 C779.753,151.365 768.782,167.162 780.728,174.099 C787.693,177.372 795.214,179.727 802.33,182.864 C815.317,185.125 828.95,171.961 842.1,168.28 C855.773,161.446 870.787,156.548 883.51,148.302 C894.498,139.019 890.38,123.863 890.344,111.43 C887.644,105.592 882.729,101.159 877.403,97.357 C869.912,91.553 858.898,90.514 849.226,92.484 z M733.887,157.451 C725.307,163.12 708.459,167.913 703.427,175.863 C703.412,188.533 703.473,201.743 706.104,214.001 C712.695,216.239 719.963,221.402 726.921,225.216 C732.459,230.086 739.044,232.053 744.287,225.867 C751.535,222.472 759.678,217.48 766.654,214.689 C771.026,203.139 768.959,186.273 767.524,174.172 C761.225,164.926 744.791,163.912 736.042,156.878 C735.374,156.477 734.076,156.524 733.887,157.451 z M663.589,203.74 C638.749,214.745 612.356,225.9 588.226,239.363 C581.036,245.138 579.597,254.722 580.5,263.939 C579.507,274.281 585.054,283.35 593.291,289.009 C600.949,295.338 613.165,297.42 623.375,294.12 C629.898,292.844 634.885,288.555 640.437,285.835 C648.143,279.274 657.203,274.678 664.504,268.133 C671.049,264.294 677.108,260.078 682.789,255.113 C697.246,250.628 696.786,234.074 695.724,221.889 C693.593,210.26 673.232,205.254 663.589,203.74 z M802.922,203.74 C795.558,207.043 787.769,209.968 780.885,213.664 C772.13,214.57 774.577,225.609 777.022,230.597 C775.295,244.014 781.687,253.89 794.493,259.361 C811.921,270.793 828.466,283.749 846.7,293.881 C857.232,297.482 869.874,295.415 878.198,289.555 C884.29,285.642 891.485,277.049 890.846,268.265 C893.515,253.404 888.811,235.93 871.6,232.042 C849.56,222.489 827.94,210.646 805.448,202.928 L803.664,203.166 z M733.045,241.096 C725.995,245.561 718.392,251.031 711.312,256.372 C706.476,268.262 706.69,282.173 704.469,295.386 C703.169,309.141 699.181,324.423 704.668,336.899 C706.617,342.604 711.483,346.477 715.576,350.524 C724.202,356.59 737.344,355.968 747.991,354.172 C756.833,351.184 765.067,343.28 767.562,334.08 C768.755,318.562 765.536,302.316 764.9,286.5 C762.563,274.398 766.835,257.763 753.669,251.044 C746.474,247.944 741.37,238.591 733.045,241.096 z" fill="#387AAD" id="path0"/>
  </g>
</svg>
