<?xml version="1.0" encoding="UTF-8"?>
<!DOCTYPE svg PUBLIC "-//W3C//DTD SVG 1.1//EN" "http://www.w3.org/Graphics/SVG/1.1/DTD/svg11.dtd">
<svg version="1.1" xmlns="http://www.w3.org/2000/svg" xmlns:xlink="http://www.w3.org/1999/xlink" x="0" y="0" width="1024" height="1024" viewBox="0, 0, 1024, 1024">
  <g id="Image">
    <g>
      <path d="M162.398,156.5 C163.315,142.92 162.129,120.702 174.398,111.5 C189.323,100.307 235.173,100.102 254.398,98.5 C304.45,94.329 355.409,98.044 405.398,93.5 C500.285,84.874 677.514,78.889 770.398,90.5 C794.734,93.542 820.062,112.045 827.398,136.5 C835.936,164.961 829.399,200.497 822.398,228.5 C819.126,241.587 803.47,266.785 806.398,278.5 C817.061,321.151 818.505,369.259 816.398,413.5 C815.479,432.813 811.117,452.088 810.398,471.5 C809.406,498.285 806.419,527.687 809.398,554.5 C811.68,575.036 819.444,602.27 815.398,622.5 C808.446,657.26 799.235,689.573 796.398,725.5 C795.428,737.789 801.764,828.012 792.398,840.5 C778.658,858.821 748.951,860.895 728.398,866.5 C700.669,874.062 672.298,885.436 643.398,887.5 C629.135,888.519 614.544,885.928 600.398,888.5 C573.671,893.359 547.135,901.68 520.398,905.5 C471.506,912.485 419.667,916.538 370.398,909.5 C352.149,906.893 332.572,912.529 314.398,909.5 C287.028,904.938 260.157,898.852 233.398,893.5 C217.208,890.262 166.736,890.169 153.398,883.5 C143.676,878.639 133.398,789.461 133.398,777.5 C133.398,716.1 138.847,657.709 136.398,596.5 C133.132,514.856 122.82,428.524 145.398,349.5 C150.41,331.96 145.398,287.943 145.398,268.5 C145.398,226.554 153.973,224.051 159.398,191.5 C161.459,179.133 157.358,167.661 160.398,155.5" fill="#126D80"/>
      <path d="M165.865,156.724 L166.044,156.09 L166.404,154.757 L166.662,153.37 L166.903,151.95 L167.268,149.77 L167.725,146.781 L168.12,143.734 L168.571,140.67 L169.079,137.626 L169.469,135.396 L169.758,133.95 L170.077,132.507 L170.425,131.095 L170.802,129.72 L171.211,128.387 L171.651,127.102 L172.105,125.863 L172.589,124.68 L173.106,123.557 L173.656,122.499 L174.236,121.51 L174.846,120.591 L175.485,119.746 L176.152,118.974 L176.846,118.274 L177.569,117.645 L178.084,117.257 L178.413,117.025 L178.554,116.934 L178.441,117.019 L178.803,116.769 L179.38,116.41 L179.95,116.091 L180.574,115.768 L181.252,115.444 L181.982,115.121 L182.761,114.8 L183.587,114.484 L184.46,114.174 L185.376,113.869 L186.334,113.573 L187.332,113.284 L188.367,113.003 L189.439,112.732 L191.135,112.335 L193.488,111.828 L195.926,111.362 L198.465,110.933 L201.089,110.539 L203.788,110.18 L206.548,109.855 L209.358,109.56 L212.205,109.284 L216.54,108.913 L220.876,108.599 L223.747,108.418 L226.617,108.254 L229.458,108.107 L232.261,107.97 L235.014,107.838 L237.707,107.715 L240.331,107.6 L242.876,107.489 L245.332,107.381 L247.69,107.273 L249.94,107.163 L252.076,107.048 L253.607,106.955 L254.594,106.89 L255.083,106.856 L255.074,106.857 L257.423,106.689 L262.064,106.39 L266.694,106.132 L271.333,105.913 L278.323,105.649 L287.662,105.383 L297.018,105.214 L306.403,105.121 L320.54,105.045 L339.448,104.986 L353.68,104.859 L363.203,104.699 L372.728,104.436 L379.891,104.166 L384.678,103.945 L389.452,103.688 L394.226,103.391 L399.002,103.046 L403.778,102.656 L406.188,102.441 L406.188,102.441 C406.193,102.44 406.198,102.44 406.203,102.439 L406.203,102.439 L408.442,102.235 L412.987,101.833 L417.64,101.434 L422.406,101.041 L427.28,100.652 L432.259,100.268 L437.338,99.89 L442.513,99.508 L447.781,99.132 L453.137,98.762 L458.579,98.399 L464.101,98.043 L469.701,97.694 L475.374,97.354 L481.117,97.021 L486.925,96.697 L492.795,96.383 L498.722,96.075 L504.704,95.768 L510.735,95.471 L516.813,95.185 L522.933,94.909 L529.092,94.645 L535.286,94.391 L541.511,94.15 L547.763,93.92 L557.188,93.598 L569.812,93.198 L582.471,92.852 L595.139,92.565 L607.785,92.338 L620.378,92.165 L629.764,92.075 L635.988,92.036 L642.186,92.015 L648.349,92.012 L654.475,92.027 L660.559,92.061 L666.596,92.11 L672.584,92.176 L678.519,92.263 L684.396,92.369 L690.211,92.496 L695.961,92.643 L701.642,92.812 L707.25,93.003 L712.782,93.212 L718.232,93.442 L723.598,93.695 L728.875,93.972 L734.059,94.271 L739.146,94.595 L744.133,94.942 L749.015,95.311 L753.789,95.705 L758.45,96.124 L762.994,96.568 L767.417,97.038 L769.566,97.281 L769.485,97.27 L770.628,97.413 L772.725,97.738 L774.766,98.133 L776.815,98.607 L778.866,99.159 L780.917,99.787 L782.962,100.491 L784.997,101.269 L787.015,102.127 L789.013,103.064 L790.987,104.069 L792.936,105.141 L794.855,106.278 L796.74,107.478 L798.587,108.74 L800.393,110.061 L802.154,111.439 L803.866,112.872 L805.526,114.358 L807.128,115.897 L808.671,117.485 L810.151,119.119 L811.566,120.797 L812.911,122.518 L814.184,124.278 L815.381,126.075 L816.501,127.908 L817.54,129.775 L818.495,131.672 L819.364,133.599 L820.145,135.554 L820.834,137.535 L821.121,138.462 L821.083,138.336 L821.473,139.674 L822.145,142.222 L822.725,144.761 L823.233,147.343 L823.665,149.966 L824.027,152.627 L824.321,155.323 L824.55,158.051 L824.716,160.808 L824.819,163.592 L824.863,166.399 L824.851,169.227 L824.783,172.072 L824.662,174.932 L824.491,177.804 L824.272,180.685 L824.001,183.571 L823.687,186.459 L823.331,189.347 L822.938,192.232 L822.508,195.111 L822.046,197.981 L821.553,200.84 L821.032,203.684 L820.486,206.51 L819.914,209.316 L819.315,212.098 L818.699,214.854 L818.068,217.581 L817.424,220.277 L816.771,222.939 L816.111,225.565 L815.781,226.855 L815.8,226.779 L815.634,227.4 L815.299,228.512 L814.911,229.669 L814.451,230.921 L813.93,232.258 L813.355,233.67 L812.73,235.148 L812.064,236.684 L811.361,238.271 L810.627,239.903 L809.482,242.426 L807.895,245.878 L806.274,249.401 L804.683,252.974 L803.531,255.685 L802.79,257.508 L802.091,259.31 L801.412,261.102 L800.738,262.875 L800.115,264.646 L799.551,266.414 L799.054,268.182 L798.63,269.955 L798.106,271.71 L797.239,273.06 L796.829,274.048 L796.462,275.004 L796.138,275.993 L796.145,277.004 L796.236,278.029 L796.374,279.067 L796.566,280.12 L796.714,280.781 L796.714,280.781 C796.721,280.814 796.729,280.846 796.737,280.878 L796.737,280.878 L797.23,282.881 L798.15,286.807 L799.012,290.732 L799.825,294.688 L800.591,298.673 L801.309,302.687 L801.982,306.727 L802.609,310.791 L803.192,314.878 L803.731,318.986 L804.229,323.112 L804.685,327.256 L805.1,331.416 L805.475,335.589 L805.812,339.773 L806.111,343.968 L806.373,348.172 L806.599,352.381 L806.873,358.724 L807.121,367.179 L807.242,375.607 L807.254,381.898 L807.228,386.078 L807.174,390.266 L807.094,394.443 L806.989,398.607 L806.86,402.756 L806.708,406.888 L806.534,411.003 L806.439,413.039 L806.443,412.972 L806.346,414.782 L806.108,418.251 L805.809,421.693 L805.455,425.164 L804.84,430.449 L803.919,437.563 L802.956,444.765 L802.03,452.085 L801.407,457.678 L801.046,461.47 L800.748,465.266 L800.52,469.093 L800.434,471.074 L800.434,471.074 C800.433,471.086 800.433,471.098 800.432,471.11 L800.432,471.11 L800.333,473.628 L800.109,478.654 L799.855,483.731 L799.583,488.872 L799.166,496.687 L798.772,504.595 L798.541,509.925 L798.352,515.271 L798.214,520.635 L798.142,526.01 L798.146,531.389 L798.241,536.765 L798.379,540.816 L798.507,543.524 L798.664,546.203 L798.853,548.876 L799.075,551.544 L799.332,554.204 L799.477,555.566 L799.477,555.566 C799.48,555.59 799.483,555.613 799.485,555.636 L799.485,555.636 L799.596,556.604 L799.852,558.663 L800.138,560.773 L800.447,562.899 L800.776,565.039 L801.12,567.191 L801.658,570.431 L802.404,574.794 L803.157,579.184 L803.892,583.574 L804.583,587.943 L805.207,592.272 L805.739,596.536 L806.061,599.647 L806.234,601.669 L806.376,603.693 L806.48,605.684 L806.545,607.637 L806.567,609.549 L806.546,611.417 L806.478,613.236 L806.363,615.004 L806.2,616.716 L805.988,618.369 L805.725,619.96 L805.592,620.638 L805.616,620.52 L804.957,623.772 L803.62,630.177 L802.249,636.535 L800.853,642.879 L798.738,652.389 L796.638,661.908 L795.263,668.291 L793.927,674.699 L792.642,681.146 L791.421,687.642 L790.277,694.194 L789.475,699.17 L788.971,702.518 L788.497,705.866 L788.051,709.233 L787.636,712.621 L787.254,716.031 L786.905,719.464 L786.592,722.92 L786.447,724.686 L786.447,724.686 C786.444,724.722 786.441,724.758 786.439,724.794 L786.439,724.794 L786.417,725.097 L786.37,725.983 L786.337,726.973 L786.318,728.016 L786.31,729.125 L786.311,730.309 L786.32,731.57 L786.337,732.909 L786.361,734.325 L786.391,735.817 L786.427,737.382 L786.468,739.02 L786.513,740.725 L786.563,742.497 L786.616,744.332 L786.671,746.226 L786.73,748.176 L786.79,750.18 L786.852,752.233 L786.915,754.333 L786.978,756.475 L787.041,758.657 L787.134,761.998 L787.252,766.558 L787.361,771.21 L787.455,775.927 L787.532,780.681 L787.586,785.443 L787.613,790.183 L787.609,794.871 L787.572,799.478 L787.518,802.851 L787.47,805.052 L787.411,807.227 L787.34,809.36 L787.258,811.447 L787.164,813.484 L787.057,815.467 L786.938,817.391 L786.805,819.252 L786.66,821.045 L786.5,822.766 L786.328,824.408 L786.142,825.966 L785.944,827.434 L785.733,828.806 L785.512,830.074 L785.282,831.23 L785.046,832.263 L784.809,833.163 L784.577,833.916 L784.363,834.505 L784.181,834.91 L784.059,835.108 L784.04,835.073 L784.24,834.74 L784.455,834.447 L784.13,834.873 L783.603,835.529 L783.104,836.109 L782.587,836.676 L782.05,837.231 L781.495,837.775 L780.921,838.307 L780.326,838.828 L779.713,839.34 L779.079,839.841 L778.042,840.611 L776.61,841.583 L775.148,842.482 L773.611,843.345 L771.999,844.172 L770.318,844.964 L768.569,845.721 L766.758,846.445 L764.89,847.135 L762.968,847.794 L760.998,848.424 L758.985,849.025 L756.934,849.601 L753.765,850.429 L749.482,851.457 L745.169,852.422 L740.83,853.358 L736.5,854.292 L733.266,855.012 L731.112,855.512 L728.99,856.026 L726.889,856.564 L725.81,856.852 L725.81,856.852 C725.785,856.859 725.76,856.866 725.735,856.873 L725.735,856.873 L723.133,857.593 L717.826,859.116 L712.502,860.701 L707.197,862.318 L699.275,864.76 L691.378,867.169 L686.153,868.718 L680.937,870.206 L675.74,871.612 L670.562,872.919 L665.406,874.107 L661.583,874.905 L659.057,875.389 L656.507,875.841 L653.962,876.251 L651.423,876.62 L648.891,876.943 L646.365,877.219 L643.845,877.447 L642.637,877.539 L642.763,877.53 L641.425,877.615 L638.957,877.717 L636.513,877.758 L634.016,877.752 L630.144,877.676 L624.862,877.513 L619.423,877.367 L615.193,877.331 L612.28,877.37 L609.359,877.478 L606.398,877.67 L603.396,877.964 L600.357,878.377 L598.719,878.651 L598.719,878.651 C598.671,878.659 598.622,878.668 598.573,878.677 L598.573,878.677 L596.068,879.142 L590.956,880.148 L585.831,881.223 L580.733,882.345 L573.146,884.09 L563.088,886.478 L553.101,888.847 L545.68,890.55 L540.775,891.627 L535.876,892.65 L530.997,893.605 L526.138,894.481 L521.299,895.267 L518.935,895.616 L519.006,895.605 L514.414,896.251 L505.25,897.476 L496.06,898.611 L489.156,899.397 L484.549,899.887 L479.921,900.35 L475.288,900.783 L470.649,901.185 L466.007,901.555 L461.362,901.89 L456.715,902.19 L452.068,902.453 L447.421,902.678 L442.776,902.863 L438.133,903.007 L433.493,903.108 L428.859,903.165 L424.23,903.176 L419.607,903.141 L414.993,903.058 L410.387,902.925 L405.791,902.741 L401.206,902.504 L396.633,902.214 L392.073,901.869 L387.527,901.467 L382.996,901.008 L378.482,900.489 L373.984,899.91 L371.776,899.602 L371.776,899.602 C371.765,899.6 371.754,899.599 371.742,899.597 L371.742,899.597 L370.886,899.481 L368.966,899.258 L366.987,899.078 L365.02,898.946 L363.065,898.858 L361.124,898.809 L358.279,898.802 L354.505,898.889 L350.748,899.064 L345.257,899.423 L338.097,899.949 L332.919,900.263 L329.617,900.389 L326.369,900.427 L324.037,900.387 L322.537,900.324 L321.017,900.229 L319.523,900.1 L318.054,899.936 L316.61,899.734 L315.969,899.63 L316.059,899.645 L313.494,899.212 L308.423,898.332 L300.837,896.954 L290.746,895.028 L280.68,893.024 L270.619,890.965 L260.56,888.877 L250.497,886.787 L240.426,884.721 L235.373,883.702 L235.373,883.702 C235.353,883.698 235.334,883.694 235.314,883.69 L235.314,883.69 L234.928,883.615 L233.996,883.444 L232.995,883.276 L231.968,883.117 L230.912,882.966 L229.827,882.821 L228.712,882.682 L227.568,882.548 L226.395,882.419 L225.193,882.293 L223.348,882.112 L220.788,881.88 L218.12,881.656 L215.364,881.439 L212.531,881.226 L209.634,881.016 L206.684,880.806 L202.185,880.489 L196.11,880.049 L190.049,879.579 L185.591,879.2 L182.69,878.932 L179.843,878.647 L177.076,878.347 L174.405,878.03 L171.846,877.694 L169.415,877.339 L167.708,877.065 L166.632,876.878 L165.576,876.684 L164.566,876.485 L163.605,876.283 L162.696,876.078 L161.842,875.872 L161.047,875.664 L160.315,875.456 L159.652,875.252 L159.062,875.052 L158.551,874.861 L158.125,874.685 L157.793,874.528 L157.765,874.509 L158.329,874.806 L158.101,874.676 L158.789,875.084 L159.405,875.567 L159.659,875.797 L159.684,875.773 L159.564,875.521 L159.35,875.069 L159.074,874.441 L158.756,873.657 L158.409,872.733 L158.041,871.683 L157.658,870.517 L157.266,869.246 L156.866,867.876 L156.462,866.416 L156.054,864.871 L155.645,863.248 L155.235,861.552 L154.826,859.789 L154.418,857.962 L154.012,856.077 L153.608,854.139 L153.207,852.152 L152.81,850.119 L152.219,846.983 L151.449,842.69 L150.701,838.304 L149.977,833.844 L149.279,829.341 L148.608,824.826 L147.968,820.329 L147.361,815.883 L146.788,811.516 L146.384,808.318 L146.126,806.229 L145.878,804.171 L145.64,802.154 L145.412,800.182 L145.195,798.258 L144.988,796.388 L144.793,794.573 L144.61,792.82 L144.438,791.13 L144.278,789.509 L144.131,787.961 L143.996,786.489 L143.874,785.099 L143.765,783.794 L143.67,782.58 L143.588,781.462 L143.52,780.445 L143.467,779.538 L143.428,778.748 L143.404,778.087 L143.393,777.572 L143.394,777.436 L143.394,777.514 L143.398,774.638 L143.428,768.938 L143.487,763.264 L143.571,757.602 L143.74,749.116 L144.033,737.837 L144.385,726.591 L144.777,715.36 L145.398,698.521 L146,681.675 L146.358,670.412 L146.658,659.125 L146.881,647.803 L146.986,639.27 L147.02,633.56 L147.025,627.848 L146.996,622.121 L146.931,616.378 L146.828,610.618 L146.685,604.841 L146.498,599.045 L146.387,596.12 L146.387,596.12 C146.387,596.109 146.386,596.099 146.386,596.088 L146.386,596.088 L146.228,592.257 L145.883,584.543 L145.507,576.8 L145.109,569.045 L144.485,557.397 L143.643,541.833 L142.842,526.254 L142.304,514.581 L141.989,506.812 L141.716,499.042 L141.493,491.28 L141.328,483.53 L141.227,475.794 L141.197,468.073 L141.246,460.371 L141.38,452.69 L141.607,445.031 L141.933,437.398 L142.365,429.792 L142.911,422.216 L143.397,416.575 L143.759,412.833 L144.155,409.079 L144.584,405.333 L145.046,401.598 L145.544,397.871 L146.076,394.154 L146.645,390.447 L147.252,386.751 L147.896,383.064 L148.579,379.389 L149.302,375.724 L150.066,372.071 L150.87,368.428 L151.717,364.798 L152.608,361.179 L153.542,357.572 L154.52,353.978 L155.018,352.215 L155.018,352.215 C155.022,352.203 155.025,352.19 155.029,352.177 L155.029,352.177 L155.145,351.761 L155.417,350.704 L155.682,349.565 L155.923,348.412 L156.141,347.242 L156.339,346.057 L156.519,344.854 L156.681,343.633 L156.828,342.395 L156.959,341.139 L157.127,339.25 L157.309,336.654 L157.447,333.965 L157.542,331.216 L157.599,328.412 L157.621,325.56 L157.611,322.666 L157.574,319.739 L157.512,316.785 L157.379,312.339 L157.141,306.383 L156.856,300.459 L156.624,296.084 L156.466,293.224 L156.31,290.421 L156.158,287.682 L156.011,285.016 L155.874,282.432 L155.749,279.942 L155.639,277.556 L155.546,275.285 L155.473,273.141 L155.433,271.636 L155.414,270.686 L155.401,269.764 L155.395,268.885 L155.394,268.48 L155.394,268.516 L155.395,267.54 L155.408,265.68 L155.432,263.893 L155.467,262.163 L155.513,260.488 L155.57,258.865 L155.638,257.295 L155.715,255.774 L155.803,254.301 L155.9,252.875 L156.005,251.494 L156.12,250.157 L156.243,248.861 L156.375,247.605 L156.514,246.386 L156.66,245.204 L156.814,244.057 L156.976,242.942 L157.234,241.301 L157.6,239.217 L157.986,237.253 L158.395,235.368 L158.826,233.545 L159.278,231.766 L159.752,230.016 L160.509,227.38 L161.579,223.852 L162.421,221.135 L163.006,219.239 L163.604,217.27 L164.212,215.221 L164.825,213.083 L165.44,210.845 L166.053,208.498 L166.661,206.033 L167.26,203.44 L167.706,201.388 L168,199.968 L168.286,198.529 L168.568,197.052 L168.845,195.535 L169.117,193.976 L169.255,193.162 L169.255,193.162 C169.26,193.132 169.265,193.101 169.269,193.071 L169.269,193.071 L169.362,192.492 L169.551,191.126 L169.769,189.069 L169.941,186.363 L169.999,183.68 L169.965,181.089 L169.867,178.593 L169.657,175.052 L169.37,170.561 L169.241,167.441 L169.227,165.532 L169.281,163.654 L169.417,161.851 L169.57,160.609 L169.693,159.831 L169.85,158.997 L170.033,158.172 L170.115,157.843 L170.115,157.843 C171.409,152.476 168.108,147.077 162.741,145.783 C157.375,144.489 151.975,147.79 150.681,153.157 C150.681,153.157 150.681,153.157 150.681,153.157 L150.489,153.967 L150.183,155.415 L149.927,156.846 L149.71,158.326 L149.474,160.46 L149.297,163.142 L149.237,165.733 L149.268,168.281 L149.42,171.835 L149.701,176.247 L149.892,179.406 L149.977,181.395 L150.012,183.312 L149.986,185.161 L149.884,187.019 L149.746,188.407 L149.619,189.35 L149.527,189.929 L149.542,189.838 L149.424,190.539 L149.179,191.946 L148.93,193.31 L148.678,194.635 L148.423,195.922 L148.169,197.153 L147.781,198.946 L147.25,201.253 L146.71,203.45 L146.162,205.553 L145.606,207.578 L145.044,209.541 L144.477,211.458 L143.903,213.345 L143.325,215.219 L142.447,218.055 L141.292,221.87 L140.451,224.808 L139.9,226.854 L139.367,228.964 L138.854,231.148 L138.367,233.415 L137.908,235.772 L137.484,238.204 L137.188,240.093 L137,241.406 L136.82,242.749 L136.651,244.125 L136.491,245.533 L136.341,246.976 L136.201,248.455 L136.072,249.971 L135.954,251.526 L135.846,253.122 L135.75,254.759 L135.665,256.44 L135.591,258.166 L135.529,259.938 L135.48,261.758 L135.442,263.628 L135.417,265.55 L135.404,267.508 L135.402,268.484 L135.402,268.484 C135.402,268.496 135.402,268.508 135.402,268.52 L135.402,268.52 L135.404,269.036 L135.412,270.049 L135.427,271.09 L135.448,272.168 L135.493,273.824 L135.571,276.105 L135.669,278.481 L135.783,280.945 L135.911,283.491 L136.05,286.111 L136.197,288.794 L136.35,291.535 L136.505,294.322 L136.66,297.143 L136.887,301.422 L137.165,307.181 L137.396,312.939 L137.524,317.209 L137.584,319.997 L137.62,322.735 L137.63,325.411 L137.611,328.015 L137.562,330.534 L137.481,332.957 L137.366,335.269 L137.213,337.487 L137.074,339.073 L136.972,340.065 L136.861,341.017 L136.743,341.926 L136.616,342.791 L136.483,343.608 L136.343,344.374 L136.199,345.087 L136.051,345.743 L135.883,346.407 L135.767,346.823 L135.778,346.785 L135.23,348.729 L134.187,352.564 L133.193,356.408 L132.248,360.259 L131.349,364.118 L130.496,367.985 L129.688,371.858 L128.923,375.738 L128.202,379.625 L127.523,383.518 L126.885,387.416 L126.286,391.32 L125.727,395.229 L125.206,399.143 L124.721,403.062 L124.273,406.984 L123.86,410.911 L123.479,414.862 L122.971,420.782 L122.405,428.66 L121.959,436.547 L121.623,444.442 L121.391,452.342 L121.254,460.246 L121.205,468.151 L121.236,476.056 L121.34,483.957 L121.509,491.854 L121.736,499.743 L122.013,507.624 L122.333,515.502 L122.876,527.281 L123.68,542.914 L124.522,558.466 L125.143,570.071 L125.538,577.769 L125.91,585.436 L126.252,593.082 L126.411,596.912 L126.409,596.88 L126.516,599.689 L126.699,605.338 L126.839,610.976 L126.94,616.604 L127.004,622.223 L127.032,627.834 L127.029,633.439 L126.995,639.026 L126.893,647.41 L126.673,658.594 L126.376,669.776 L126.021,680.961 L125.42,697.784 L124.798,714.663 L124.403,725.966 L124.048,737.318 L123.752,748.718 L123.581,757.305 L123.496,763.059 L123.437,768.832 L123.406,774.61 L123.402,777.486 L123.402,777.486 C123.402,777.512 123.402,777.538 123.403,777.564 L123.403,777.564 L123.407,778.016 L123.426,778.846 L123.461,779.743 L123.51,780.72 L123.573,781.779 L123.65,782.922 L123.74,784.149 L123.843,785.458 L123.959,786.848 L124.088,788.315 L124.23,789.857 L124.383,791.47 L124.549,793.153 L124.727,794.901 L124.916,796.71 L125.117,798.578 L125.329,800.502 L125.552,802.477 L125.786,804.5 L126.031,806.567 L126.285,808.676 L126.551,810.828 L126.967,814.116 L127.554,818.589 L128.177,823.147 L128.834,827.762 L129.524,832.406 L130.245,837.049 L130.995,841.664 L131.772,846.223 L132.574,850.686 L133.191,853.956 L133.611,856.105 L134.038,858.218 L134.47,860.292 L134.909,862.324 L135.354,864.312 L135.805,866.252 L136.262,868.143 L136.727,869.981 L137.2,871.765 L137.681,873.494 L138.172,875.166 L138.675,876.782 L139.192,878.342 L139.727,879.847 L140.285,881.303 L140.875,882.713 L141.51,884.089 L142.208,885.441 L143.002,886.787 L143.941,888.148 L145.109,889.541 L146.638,890.958 L148.239,892.065 L148.467,892.194 L148.467,892.194 C148.652,892.299 148.84,892.398 149.032,892.491 L149.032,892.491 L149.642,892.782 L150.667,893.232 L151.703,893.643 L152.754,894.021 L153.823,894.374 L154.913,894.703 L156.026,895.013 L157.163,895.307 L158.325,895.585 L159.513,895.85 L160.726,896.103 L161.966,896.345 L163.23,896.577 L164.542,896.803 L166.538,897.122 L169.251,897.515 L172.049,897.881 L174.922,898.221 L177.859,898.539 L180.851,898.837 L183.897,899.118 L188.505,899.51 L194.668,899.987 L200.777,900.429 L205.267,900.746 L208.188,900.954 L211.035,901.16 L213.794,901.367 L216.449,901.576 L218.987,901.789 L221.401,902.007 L223.12,902.175 L224.206,902.288 L225.25,902.403 L226.246,902.519 L227.193,902.636 L228.087,902.755 L228.924,902.874 L229.701,902.993 L230.412,903.11 L231.097,903.234 L231.483,903.31 L231.423,903.298 L236.408,904.302 L246.432,906.359 L256.498,908.45 L266.612,910.549 L276.778,912.629 L286.999,914.663 L297.267,916.622 L305.003,918.026 L310.173,918.923 L312.738,919.355 L312.738,919.355 C312.768,919.36 312.798,919.365 312.828,919.37 L312.828,919.37 L313.893,919.537 L315.872,919.805 L317.841,920.018 L319.799,920.181 L321.745,920.297 L323.723,920.373 L326.627,920.414 L330.393,920.362 L334.134,920.214 L339.56,919.883 L346.568,919.368 L351.69,919.03 L354.987,918.871 L358.241,918.789 L360.645,918.791 L362.191,918.826 L363.712,918.891 L365.209,918.986 L366.681,919.114 L368.198,919.287 L369.054,919.403 L369.02,919.398 L371.435,919.734 L376.204,920.346 L380.984,920.893 L385.772,921.377 L390.568,921.799 L395.371,922.161 L400.18,922.465 L404.994,922.711 L409.813,922.903 L414.634,923.041 L419.458,923.127 L424.282,923.162 L429.107,923.149 L433.931,923.089 L438.753,922.983 L443.572,922.833 L448.388,922.64 L453.199,922.407 L458.004,922.134 L462.803,921.824 L467.594,921.477 L472.377,921.096 L477.15,920.681 L481.912,920.235 L486.663,919.759 L491.416,919.253 L498.511,918.445 L507.898,917.284 L517.198,916.041 L521.79,915.395 L521.79,915.395 C521.814,915.391 521.838,915.388 521.862,915.384 L521.862,915.384 L524.51,914.991 L529.688,914.147 L534.839,913.216 L539.963,912.211 L545.062,911.145 L550.151,910.027 L557.715,908.291 L567.704,905.92 L577.625,903.564 L585.031,901.86 L589.934,900.779 L594.816,899.754 L599.718,898.789 L602.223,898.323 L602.077,898.349 L603.094,898.171 L605.38,897.847 L607.72,897.608 L610.115,897.445 L612.565,897.35 L615.032,897.312 L618.888,897.342 L624.247,897.485 L629.764,897.654 L633.983,897.733 L636.87,897.736 L639.801,897.68 L642.695,897.556 L644.033,897.47 L644.033,897.47 C644.075,897.468 644.117,897.465 644.16,897.461 L644.16,897.461 L645.66,897.346 L648.552,897.08 L651.433,896.761 L654.3,896.392 L657.155,895.975 L659.998,895.514 L662.828,895.01 L665.676,894.462 L669.903,893.575 L675.456,892.29 L680.962,890.897 L686.42,889.418 L691.832,887.873 L697.209,886.278 L705.161,883.852 L713.023,881.427 L718.205,879.847 L723.339,878.318 L728.46,876.847 L731.062,876.127 L730.986,876.148 L731.847,875.916 L733.703,875.44 L735.63,874.971 L737.609,874.511 L740.714,873.82 L745.044,872.885 L749.537,871.915 L754.154,870.879 L758.825,869.753 L762.343,868.83 L764.719,868.16 L767.099,867.445 L769.476,866.68 L771.848,865.86 L774.211,864.978 L776.559,864.029 L778.888,863.007 L781.193,861.906 L783.469,860.718 L785.71,859.436 L787.909,858.055 L790.009,856.604 L791.533,855.458 L792.562,854.633 L793.574,853.778 L794.567,852.893 L795.541,851.977 L796.493,851.03 L797.423,850.05 L798.329,849.039 L799.209,847.995 L800.017,846.98 L800.342,846.553 L800.342,846.553 C800.415,846.457 800.487,846.359 800.557,846.26 L800.557,846.26 L801.19,845.313 L802.003,843.884 L802.669,842.47 L803.233,841.053 L803.721,839.618 L804.15,838.151 L804.534,836.642 L804.88,835.085 L805.194,833.477 L805.48,831.813 L805.74,830.093 L805.977,828.317 L806.193,826.485 L806.39,824.598 L806.568,822.658 L806.729,820.666 L806.873,818.625 L807.002,816.537 L807.116,814.404 L807.216,812.23 L807.303,810.017 L807.376,807.769 L807.438,805.487 L807.489,803.165 L807.544,799.641 L807.582,794.884 L807.585,790.067 L807.556,785.216 L807.501,780.36 L807.423,775.527 L807.327,770.743 L807.217,766.038 L807.097,761.441 L807.003,758.081 L806.94,755.887 L806.876,753.736 L806.813,751.632 L806.751,749.578 L806.691,747.578 L806.633,745.636 L806.577,743.755 L806.525,741.94 L806.476,740.193 L806.431,738.521 L806.391,736.926 L806.357,735.413 L806.328,733.987 L806.305,732.652 L806.289,731.416 L806.28,730.283 L806.278,729.263 L806.284,728.364 L806.296,727.602 L806.313,726.998 L806.336,726.508 L806.358,726.206 L806.349,726.314 L806.48,724.717 L806.771,721.478 L807.098,718.254 L807.457,715.045 L807.847,711.849 L808.267,708.664 L808.716,705.489 L809.189,702.343 L809.947,697.624 L811.044,691.328 L812.223,685.047 L813.473,678.772 L814.781,672.494 L816.134,666.209 L818.226,656.722 L820.351,647.168 L821.764,640.74 L823.161,634.256 L824.523,627.732 L825.181,624.48 L825.181,624.48 C825.189,624.441 825.196,624.402 825.204,624.362 L825.204,624.362 L825.433,623.134 L825.794,620.852 L826.077,618.558 L826.286,616.253 L826.427,613.94 L826.506,611.619 L826.526,609.292 L826.494,606.959 L826.413,604.623 L826.287,602.285 L826.12,599.947 L825.913,597.577 L825.544,594.055 L824.961,589.421 L824.296,584.822 L823.576,580.278 L822.827,575.807 L822.076,571.43 L821.345,567.159 L820.826,564.035 L820.5,562.007 L820.195,560.023 L819.912,558.085 L819.655,556.198 L819.422,554.331 L819.311,553.364 L819.319,553.434 L819.194,552.278 L818.961,549.882 L818.758,547.466 L818.585,545.029 L818.439,542.574 L818.322,540.127 L818.192,536.409 L818.1,531.367 L818.093,526.276 L818.161,521.143 L818.291,515.977 L818.475,510.785 L818.698,505.586 L819.088,497.75 L819.505,489.925 L819.779,484.724 L820.037,479.542 L820.266,474.409 L820.364,471.89 L820.363,471.926 L820.432,470.268 L820.633,466.822 L820.903,463.35 L821.23,459.879 L821.817,454.587 L822.724,447.406 L823.697,440.119 L824.648,432.751 L825.294,427.177 L825.675,423.409 L826.001,419.611 L826.258,415.839 L826.354,414.028 L826.354,414.028 C826.355,414.006 826.356,413.983 826.357,413.961 L826.357,413.961 L826.455,411.844 L826.633,407.62 L826.788,403.373 L826.92,399.107 L827.027,394.821 L827.108,390.519 L827.162,386.202 L827.188,381.854 L827.172,375.316 L827.043,366.59 L826.782,357.859 L826.497,351.309 L826.26,346.928 L825.985,342.549 L825.671,338.171 L825.318,333.799 L824.923,329.432 L824.486,325.073 L824.005,320.723 L823.48,316.384 L822.908,312.057 L822.29,307.745 L821.623,303.449 L820.907,299.169 L820.14,294.909 L819.322,290.669 L818.451,286.452 L817.525,282.258 L816.553,278.125 L816.059,276.122 L816.083,276.219 L816.1,276.326 L816.071,276.241 L816.041,276.105 L816.014,275.918 L815.953,275.682 L815.608,275.391 L815.268,275.032 L814.93,274.674 L814.253,273.948 L814.126,272.835 L814.255,271.631 L814.455,270.327 L814.721,268.936 L815.049,267.467 L815.436,265.933 L815.918,264.357 L816.466,262.742 L817.049,261.107 L817.999,258.575 L819.372,255.101 L820.815,251.582 L822.302,248.073 L823.413,245.473 L824.139,243.754 L824.847,242.052 L825.532,240.371 L826.187,238.713 L826.808,237.079 L827.39,235.47 L827.927,233.885 L828.42,232.323 L828.838,230.844 L828.996,230.221 L828.996,230.221 C829.003,230.196 829.009,230.171 829.015,230.145 L829.015,230.145 L829.341,228.799 L829.985,226.089 L830.623,223.334 L831.251,220.539 L831.868,217.706 L832.47,214.837 L833.055,211.935 L833.627,209.004 L834.178,206.045 L834.704,203.061 L835.201,200.053 L835.668,197.026 L836.101,193.98 L836.497,190.919 L836.853,187.845 L837.168,184.761 L837.438,181.669 L837.666,178.571 L837.842,175.47 L837.965,172.369 L838.031,169.268 L838.036,166.171 L837.978,163.081 L837.854,159.999 L837.66,156.928 L837.394,153.87 L837.051,150.829 L836.628,147.806 L836.123,144.804 L835.535,141.825 L834.857,138.873 L834.102,136.004 L833.713,134.664 L833.713,134.664 C833.701,134.622 833.688,134.58 833.675,134.538 L833.675,134.538 L833.248,133.182 L832.355,130.649 L831.353,128.165 L830.245,125.732 L829.037,123.351 L827.733,121.024 L826.338,118.753 L824.855,116.539 L823.288,114.384 L821.642,112.288 L819.921,110.252 L818.127,108.279 L816.265,106.37 L814.339,104.525 L812.353,102.743 L810.309,101.029 L808.211,99.384 L806.062,97.808 L803.865,96.304 L801.624,94.873 L799.341,93.516 L797.02,92.236 L794.663,91.033 L792.274,89.91 L789.86,88.86 L787.421,87.885 L784.959,86.994 L782.475,86.19 L779.973,85.474 L777.456,84.85 L774.925,84.32 L772.451,83.894 L771.311,83.73 L771.311,83.73 C771.284,83.726 771.257,83.722 771.23,83.719 L771.23,83.719 L768.995,83.424 L764.467,82.856 L759.824,82.314 L755.071,81.796 L750.209,81.302 L745.244,80.832 L740.178,80.388 L735.015,79.967 L729.759,79.568 L724.413,79.192 L718.982,78.838 L713.468,78.506 L707.876,78.195 L702.209,77.91 L696.471,77.645 L690.665,77.4 L684.796,77.175 L678.867,76.971 L672.882,76.785 L666.845,76.619 L660.759,76.474 L654.628,76.351 L648.456,76.246 L642.248,76.159 L636.005,76.089 L629.728,76.037 L620.267,75.99 L607.591,75.989 L594.865,76.062 L582.119,76.195 L569.382,76.387 L556.69,76.634 L547.217,76.866 L540.927,77.038 L534.665,77.222 L528.433,77.418 L522.236,77.626 L516.078,77.846 L509.962,78.076 L503.892,78.318 L497.871,78.57 L491.905,78.84 L485.997,79.122 L480.149,79.414 L474.367,79.715 L468.653,80.025 L463.012,80.343 L457.448,80.669 L451.963,81.003 L446.562,81.344 L441.249,81.693 L436.027,82.048 L430.901,82.42 L425.873,82.798 L420.948,83.181 L416.129,83.57 L411.42,83.964 L406.832,84.361 L404.593,84.561 L404.608,84.559 L402.331,84.759 L397.723,85.127 L393.104,85.452 L388.475,85.743 L383.835,85.999 L379.2,86.221 L372.218,86.495 L362.86,86.768 L353.479,86.969 L339.327,87.161 L320.37,87.359 L306.116,87.556 L296.588,87.772 L287.048,88.068 L277.515,88.473 L270.37,88.873 L265.596,89.186 L260.821,89.538 L256.067,89.931 L253.722,90.143 L253.722,90.143 C253.72,90.144 253.717,90.144 253.714,90.144 L253.714,90.144 L253.292,90.184 L252.4,90.266 L250.974,90.387 L248.924,90.549 L246.73,90.71 L244.404,90.874 L241.96,91.041 L239.408,91.215 L236.761,91.396 L234.029,91.588 L231.223,91.792 L228.355,92.02 L225.436,92.267 L222.475,92.534 L219.467,92.824 L214.939,93.302 L210.42,93.839 L207.404,94.241 L204.408,94.687 L201.441,95.169 L198.51,95.691 L195.626,96.254 L192.797,96.863 L190.03,97.521 L187.36,98.228 L185.423,98.803 L184.14,99.21 L182.878,99.633 L181.64,100.074 L180.424,100.533 L179.233,101.012 L178.066,101.511 L176.924,102.033 L175.808,102.579 L174.718,103.151 L173.655,103.752 L172.621,104.385 L171.615,105.052 L170.704,105.711 L170.356,105.981 L170.356,105.981 C170.318,106.009 170.28,106.037 170.242,106.066 L170.242,106.066 L169.813,106.411 L169.031,107.08 L167.951,108.11 L166.677,109.495 L165.518,110.943 L164.469,112.442 L163.524,113.985 L162.678,115.564 L161.922,117.173 L161.249,118.807 L160.654,120.461 L160.13,122.131 L159.672,123.816 L159.294,125.515 L158.97,127.22 L158.696,128.928 L158.467,130.638 L158.279,132.345 L158.125,134.071 L157.956,136.623 L157.89,139.956 L157.918,143.214 L157.997,146.369 L158.199,149.398 L158.385,151.575 L158.502,152.969 L158.625,154.314 L158.835,155.624 L158.931,156.276 C158.931,156.276 158.931,156.276 158.931,156.276 C158.808,158.191 160.26,159.843 162.174,159.967 C164.089,160.091 165.741,158.639 165.865,156.724 L165.865,156.724" fill="#000000"/>
    </g>
    <g>
      <path d="M243.5,189.5 C246.964,286.905 235.5,403.522 235.5,500.5 C235.5,509.76 229.07,551.177 237.5,557.5 C254.12,569.965 313.383,554.595 333.5,551.5 C393.393,542.286 453.634,547.078 513.5,537.5 C557.662,530.434 628.844,523.337 673.498,534.5 C677.785,535.572 704.48,532.765 707.5,530.5 C714.509,525.243 713.366,488.871 714.5,481.5 C728.714,389.112 729.5,294.147 729.5,200.5 C729.5,194.284 729.478,167.485 723.5,163.5 C719.16,160.607 704.645,162.5 699.5,162.5 C643.268,162.5 569.353,163.028 513.5,173.5 C499.244,176.173 486.027,171.179 471.5,172.5 C442.071,175.175 413.702,175.328 384.5,179.5 C340.231,185.824 288.612,187.5 243.5,187.5" fill="#FFFFFF"/>
      <path d="M240.028,189.619 L239.544,191.925 L238.735,196.533 L238.27,201.145 L237.96,205.775 L237.676,210.426 L237.437,215.099 L237.214,219.793 L237.013,224.509 L236.717,231.628 L236.33,241.188 L235.954,250.815 L235.571,260.511 L235.166,270.269 L234.753,280.083 L234.33,289.945 L233.885,299.85 L233.44,309.791 L232.983,319.759 L232.287,334.753 L231.368,354.773 L230.469,374.773 L229.845,389.73 L229.447,399.67 L229.064,409.571 L228.723,419.43 L228.416,429.239 L228.14,438.989 L227.9,448.675 L227.721,458.289 L227.587,467.824 L227.519,474.925 L227.49,479.633 L227.479,484.311 L227.487,488.965 L227.511,493.593 L227.549,498.195 L227.575,500.493 L227.575,500.458 L227.577,500.681 L227.575,501.052 L227.566,501.46 L227.551,501.935 L227.528,502.471 L227.499,503.061 L227.463,503.702 L227.42,504.389 L227.372,505.119 L227.319,505.89 L227.23,507.121 L227.097,508.877 L226.953,510.753 L226.802,512.736 L226.648,514.814 L226.494,516.973 L226.343,519.199 L226.2,521.481 L226.067,523.805 L225.899,527.331 L225.777,530.897 L225.727,533.293 L225.709,535.656 L225.726,537.994 L225.783,540.297 L225.886,542.556 L226.039,544.763 L226.192,546.406 L226.315,547.496 L226.452,548.544 L226.606,549.575 L226.78,550.591 L226.975,551.59 L227.192,552.574 L227.435,553.543 L227.705,554.498 L228.008,555.441 L228.348,556.372 L228.73,557.293 L229.162,558.205 L229.653,559.109 L230.215,560.003 L230.859,560.884 L231.601,561.744 L232.454,562.57 L233.072,563.082 L233.072,563.082 C233.155,563.149 233.24,563.213 233.327,563.275 L233.327,563.275 L233.729,563.557 L234.878,564.294 L236.172,565.018 L237.502,565.661 L238.863,566.228 L240.253,566.728 L241.671,567.166 L243.115,567.548 L244.585,567.88 L246.08,568.164 L247.601,568.404 L249.147,568.603 L250.717,568.765 L252.312,568.89 L253.931,568.983 L255.573,569.043 L257.238,569.073 L258.924,569.074 L260.63,569.049 L262.356,568.997 L264.101,568.921 L265.862,568.824 L267.64,568.707 L269.433,568.586 L272.132,568.37 L275.778,568.02 L279.473,567.603 L283.187,567.131 L286.908,566.615 L290.621,566.057 L294.313,565.465 L297.97,564.847 L301.576,564.21 L305.118,563.562 L308.581,562.909 L311.951,562.27 L315.213,561.641 L317.579,561.18 L319.114,560.881 L320.611,560.588 L322.071,560.303 L323.49,560.028 L324.867,559.761 L326.199,559.506 L327.485,559.262 L328.722,559.031 L329.907,558.815 L331.04,558.616 L332.116,558.433 L333.132,558.266 L334.086,558.117 L334.523,558.052 L334.485,558.057 L337.295,557.651 L342.848,556.907 L348.386,556.251 L353.933,555.68 L359.485,555.174 L365.048,554.768 L370.618,554.435 L376.198,554.221 L384.611,554.295 L395.832,554.582 L407.054,554.957 L418.277,554.805 L429.524,554.375 L440.806,553.918 L452.124,553.392 L460.647,552.927 L466.349,552.572 L472.045,552.178 L477.75,551.736 L483.462,551.243 L489.181,550.693 L494.908,550.08 L500.642,549.398 L506.382,548.643 L512.129,547.809 L515.04,547.355 L515.04,547.355 C515.05,547.354 515.059,547.352 515.069,547.351 L515.069,547.351 L516.109,547.185 L518.196,546.858 L521.393,546.368 L525.779,545.72 L530.29,545.082 L534.925,544.454 L539.672,543.841 L544.522,543.246 L549.466,542.673 L554.491,542.124 L559.59,541.604 L564.75,541.115 L569.964,540.66 L575.219,540.244 L580.506,539.869 L585.816,539.538 L591.137,539.256 L596.459,539.024 L601.772,538.847 L607.067,538.727 L612.331,538.668 L617.555,538.673 L622.729,538.745 L627.841,538.886 L631.61,539.039 L634.09,539.164 L636.567,539.309 L639.021,539.473 L641.451,539.657 L643.856,539.861 L646.233,540.085 L648.582,540.33 L650.901,540.595 L653.188,540.882 L655.443,541.191 L657.663,541.521 L659.848,541.873 L661.995,542.247 L664.103,542.643 L666.171,543.062 L668.197,543.503 L670.18,543.966 L671.116,544.197 L671.116,544.197 C671.2,544.217 671.284,544.237 671.368,544.255 L671.368,544.255 L671.586,544.303 L672.783,544.503 L674.02,544.63 L675.175,544.692 L676.321,544.718 L677.492,544.717 L678.703,544.693 L679.959,544.651 L681.261,544.591 L682.607,544.514 L683.993,544.422 L685.412,544.316 L687.574,544.132 L690.524,543.844 L693.506,543.511 L696.445,543.139 L698.606,542.835 L700.016,542.62 L701.364,542.401 L702.667,542.174 L703.92,541.938 L705.121,541.693 L706.271,541.436 L707.375,541.163 L708.446,540.864 L709.511,540.522 L710.629,540.096 L711.917,539.483 L713.066,538.792 L713.066,538.792 C713.283,538.646 713.494,538.492 713.699,538.33 L713.699,538.33 L713.862,538.201 L714.739,537.431 L715.665,536.473 L716.455,535.508 L717.131,534.548 L717.716,533.598 L718.227,532.659 L718.677,531.727 L719.078,530.802 L719.439,529.879 L719.766,528.957 L720.065,528.032 L720.453,526.69 L720.915,524.841 L721.328,522.906 L721.688,520.938 L722.003,518.936 L722.279,516.903 L722.523,514.843 L722.737,512.763 L723.007,509.649 L723.296,505.476 L723.47,502.351 L723.568,500.308 L723.654,498.325 L723.731,496.395 L723.8,494.531 L723.864,492.744 L723.925,491.045 L723.985,489.448 L724.044,487.966 L724.106,486.615 L724.17,485.412 L724.22,484.636 L724.253,484.191 L724.287,483.783 L724.321,483.435 L724.352,483.156 L724.38,482.956 L724.382,482.952 L724.376,482.996 L725.032,478.664 L726.297,469.921 L727.49,461.145 L728.608,452.358 L729.655,443.561 L730.632,434.755 L731.543,425.941 L732.389,417.118 L733.173,408.289 L733.897,399.453 L734.564,390.612 L735.176,381.765 L735.735,372.915 L736.244,364.061 L736.705,355.204 L737.121,346.345 L737.493,337.485 L737.825,328.624 L738.251,315.343 L738.698,297.634 L739.024,279.924 L739.248,262.23 L739.388,244.558 L739.463,226.912 L739.492,209.299 L739.495,200.503 L739.495,200.503 C739.495,200.502 739.495,200.5 739.495,200.499 L739.495,200.499 L739.495,200.192 L739.494,199.484 L739.491,198.656 L739.486,197.72 L739.477,196.685 L739.462,195.56 L739.441,194.353 L739.412,193.072 L739.375,191.726 L739.328,190.321 L739.27,188.866 L739.2,187.368 L739.07,185.075 L738.843,181.935 L738.542,178.731 L738.257,176.295 L738.034,174.661 L737.787,173.076 L737.511,171.509 L737.201,169.962 L736.852,168.437 L736.457,166.934 L736.008,165.45 L735.492,163.979 L734.887,162.512 L734.164,161.038 L733.275,159.541 L732.37,158.282 L731.598,157.377 L730.82,156.595 L729.925,155.827 L729.242,155.319 L729.242,155.319 C729.1,155.219 728.955,155.123 728.808,155.031 L728.808,155.031 L728.598,154.899 L727.47,154.274 L726.172,153.69 L724.939,153.246 L723.76,152.905 L722.623,152.64 L721.517,152.434 L720.433,152.273 L719.366,152.149 L718.309,152.055 L716.79,151.964 L714.749,151.904 L712.688,151.904 L710.669,151.948 L708.708,152.023 L706.826,152.118 L705.049,152.221 L703.406,152.322 L702.285,152.389 L701.61,152.427 L700.987,152.459 L700.429,152.483 L699.947,152.499 L699.553,152.505 L699.445,152.505 L699.498,152.505 L696.85,152.505 L691.472,152.509 L685.996,152.519 L680.43,152.536 L674.781,152.562 L669.055,152.599 L663.258,152.649 L657.398,152.713 L651.481,152.794 L645.514,152.892 L639.502,153.009 L633.453,153.148 L627.372,153.311 L621.267,153.498 L612.089,153.828 L602.881,154.225 L596.73,154.53 L590.599,154.868 L584.481,155.241 L578.383,155.652 L572.312,156.102 L566.274,156.593 L560.275,157.127 L554.321,157.705 L548.418,158.33 L542.574,159.003 L536.792,159.727 L531.081,160.503 L525.446,161.334 L521.257,161.996 L518.485,162.457 L515.751,162.93 L513.04,163.419 L511.675,163.672 L511.735,163.661 L511.068,163.781 L509.965,163.949 L508.934,164.074 L507.896,164.17 L506.254,164.269 L504.058,164.306 L501.869,164.253 L499.611,164.125 L497.281,163.935 L494.872,163.697 L491.095,163.284 L487.165,162.868 L484.395,162.617 L481.551,162.421 L478.612,162.302 L475.578,162.287 L473.183,162.364 L471.53,162.468 L470.66,162.539 L470.66,162.539 C470.647,162.54 470.633,162.541 470.62,162.543 L470.62,162.543 L467.864,162.786 L462.438,163.228 L457.042,163.625 L451.647,163.989 L443.543,164.492 L432.734,165.132 L421.886,165.808 L413.693,166.386 L408.189,166.824 L402.678,167.314 L397.14,167.867 L391.573,168.494 L385.976,169.204 L383.126,169.599 L383.126,169.599 C383.119,169.6 383.113,169.601 383.106,169.602 L383.106,169.602 L381.025,169.895 L376.89,170.453 L372.732,170.983 L368.534,171.488 L364.299,171.968 L360.03,172.425 L355.728,172.858 L351.398,173.268 L347.042,173.655 L342.661,174.02 L336.039,174.528 L327.158,175.133 L318.242,175.657 L309.299,176.106 L300.351,176.484 L291.417,176.796 L282.519,177.045 L273.678,177.235 L267.104,177.342 L262.752,177.398 L258.418,177.441 L254.112,177.473 L249.837,177.493 L245.596,177.503 L243.494,177.505 L243.494,177.505 C237.974,177.508 233.501,181.986 233.505,187.506 C233.508,193.026 237.986,197.499 243.506,197.495 C243.506,197.495 243.506,197.495 243.506,197.495 L245.643,197.494 L249.934,197.484 L254.259,197.463 L258.618,197.431 L263.007,197.387 L267.43,197.331 L274.109,197.222 L283.079,197.028 L292.114,196.775 L301.195,196.458 L310.302,196.072 L319.416,195.614 L328.516,195.078 L337.57,194.461 L344.323,193.943 L348.812,193.568 L353.283,193.17 L357.731,192.749 L362.156,192.303 L366.554,191.833 L370.923,191.337 L375.261,190.814 L379.565,190.265 L383.814,189.691 L385.894,189.398 L385.874,189.401 L388.495,189.037 L393.812,188.36 L399.13,187.76 L404.451,187.227 L409.778,186.753 L415.1,186.328 L423.129,185.761 L433.916,185.089 L444.783,184.446 L452.992,183.936 L458.509,183.563 L464.061,183.154 L469.624,182.701 L472.38,182.457 L472.34,182.461 L472.83,182.418 L473.885,182.344 L475.529,182.28 L477.833,182.279 L480.188,182.366 L482.601,182.529 L485.059,182.749 L488.927,183.159 L492.918,183.594 L495.684,183.863 L498.531,184.088 L501.463,184.241 L504.48,184.294 L507.515,184.221 L509.817,184.07 L511.419,183.911 L513.039,183.704 L514.597,183.459 L515.265,183.339 L515.265,183.339 C515.285,183.336 515.305,183.332 515.325,183.328 L515.325,183.328 L516.585,183.094 L519.162,182.63 L521.766,182.178 L524.382,181.743 L528.363,181.112 L533.775,180.313 L539.278,179.564 L544.863,178.864 L550.525,178.211 L556.255,177.603 L562.047,177.04 L567.895,176.519 L573.791,176.039 L579.728,175.599 L585.7,175.196 L591.699,174.829 L597.72,174.497 L603.743,174.198 L612.809,173.807 L621.88,173.48 L627.906,173.295 L633.912,173.135 L639.894,172.997 L645.843,172.88 L651.753,172.783 L657.617,172.703 L663.43,172.639 L669.185,172.59 L674.874,172.553 L680.492,172.527 L686.032,172.509 L691.487,172.5 L696.853,172.496 L699.502,172.495 L699.502,172.495 C699.519,172.495 699.537,172.495 699.555,172.495 L699.555,172.495 L699.943,172.492 L700.62,172.478 L701.307,172.454 L702.011,172.423 L702.734,172.386 L703.483,172.343 L704.628,172.275 L706.21,172.178 L707.84,172.082 L709.49,171.998 L711.128,171.932 L712.718,171.894 L714.218,171.887 L715.632,171.92 L716.602,171.973 L717.143,172.016 L717.613,172.064 L718.002,172.113 L718.296,172.157 L718.479,172.185 L718.533,172.182 L718.439,172.123 L718.179,171.974 L717.981,171.837 L718.192,171.969 L717.758,171.681 L717.353,171.368 L717.002,171.04 L716.749,170.76 L716.487,170.42 L716.314,170.121 L716.347,170.101 L716.483,170.316 L716.678,170.734 L716.902,171.327 L717.139,172.072 L717.377,172.945 L717.608,173.929 L717.83,175.008 L718.038,176.167 L718.232,177.393 L718.405,178.637 L718.641,180.614 L718.906,183.386 L719.112,186.21 L719.232,188.307 L719.296,189.666 L719.35,190.993 L719.393,192.28 L719.428,193.52 L719.454,194.703 L719.474,195.822 L719.488,196.87 L719.497,197.837 L719.502,198.718 L719.505,199.505 L719.505,200.195 L719.505,200.501 L719.505,200.497 L719.503,209.267 L719.475,226.827 L719.401,244.399 L719.262,261.978 L719.041,279.557 L718.718,297.13 L718.276,314.704 L717.854,327.877 L717.527,336.646 L717.159,345.409 L716.749,354.166 L716.294,362.915 L715.792,371.655 L715.241,380.387 L714.638,389.11 L713.982,397.822 L713.27,406.523 L712.499,415.212 L711.668,423.889 L710.774,432.552 L709.815,441.202 L708.789,449.837 L707.693,458.457 L706.526,467.061 L705.281,475.671 L704.624,480.004 L704.624,480.004 C704.622,480.018 704.62,480.033 704.618,480.048 L704.618,480.048 L704.568,480.4 L704.495,480.975 L704.433,481.55 L704.378,482.136 L704.329,482.737 L704.283,483.373 L704.222,484.349 L704.15,485.711 L704.084,487.165 L704.022,488.707 L703.962,490.331 L703.901,492.027 L703.838,493.788 L703.771,495.603 L703.697,497.461 L703.616,499.352 L703.525,501.248 L703.368,504.105 L703.107,507.928 L702.866,510.731 L702.684,512.516 L702.485,514.231 L702.267,515.862 L702.032,517.39 L701.782,518.796 L701.523,520.059 L701.246,521.208 L701.033,521.97 L700.909,522.374 L700.794,522.719 L700.693,522.998 L700.613,523.206 L700.562,523.338 L700.55,523.389 L700.591,523.353 L700.702,523.228 L700.904,523.018 L701.22,522.729 L701.464,522.541 L701.301,522.67 L701.934,522.208 L702.766,521.73 L703.219,521.548 L703.25,521.556 L702.994,521.65 L702.524,521.788 L701.886,521.951 L701.109,522.127 L700.217,522.312 L699.225,522.5 L698.148,522.689 L697.001,522.877 L695.814,523.059 L693.93,523.326 L691.28,523.663 L688.578,523.967 L685.881,524.232 L683.914,524.4 L682.663,524.495 L681.463,524.575 L680.326,524.641 L679.265,524.692 L678.293,524.727 L677.429,524.746 L676.695,524.751 L676.122,524.744 L675.762,524.735 L675.705,524.748 L675.845,524.792 L675.628,524.745 L675.88,524.803 L674.713,524.517 L672.433,523.987 L670.123,523.487 L667.782,523.016 L665.413,522.572 L663.016,522.157 L660.593,521.768 L658.143,521.406 L655.668,521.069 L653.169,520.757 L650.647,520.469 L648.103,520.205 L645.538,519.964 L642.953,519.746 L640.349,519.55 L637.727,519.376 L635.088,519.223 L632.415,519.09 L628.389,518.928 L623.001,518.781 L617.57,518.708 L612.104,518.706 L606.612,518.769 L601.104,518.895 L595.588,519.081 L590.075,519.322 L584.573,519.616 L579.091,519.959 L573.64,520.347 L568.228,520.778 L562.865,521.247 L557.56,521.751 L552.323,522.287 L547.164,522.851 L542.091,523.441 L537.115,524.052 L532.245,524.682 L527.49,525.327 L522.861,525.984 L518.373,526.648 L515.102,527.149 L512.971,527.484 L511.931,527.649 L511.96,527.645 L509.258,528.068 L503.776,528.867 L498.283,529.592 L492.78,530.249 L487.267,530.842 L481.743,531.375 L476.208,531.855 L470.663,532.286 L465.108,532.673 L459.556,533.02 L451.195,533.48 L439.996,534.004 L428.758,534.464 L417.482,534.9 L406.183,535.648 L394.885,537.039 L383.592,538.541 L375.123,539.707 L369.451,540.327 L363.771,540.925 L358.087,541.555 L352.395,542.204 L346.7,542.916 L341.001,543.681 L335.32,544.506 L332.515,544.943 L332.515,544.943 C332.502,544.945 332.489,544.946 332.477,544.948 L332.477,544.948 L331.957,545.032 L330.912,545.208 L329.821,545.4 L328.683,545.606 L327.501,545.827 L326.275,546.058 L325.005,546.3 L323.694,546.553 L322.343,546.816 L320.953,547.089 L319.527,547.371 L318.065,547.661 L316.57,547.958 L315.044,548.261 L312.701,548.724 L309.48,549.356 L306.165,549.996 L302.767,550.627 L299.304,551.252 L295.791,551.863 L292.244,552.454 L288.679,553.016 L285.11,553.544 L281.554,554.028 L278.027,554.458 L274.546,554.831 L271.112,555.142 L268.581,555.33 L266.933,555.431 L265.31,555.495 L263.716,555.536 L262.153,555.555 L260.623,555.553 L259.129,555.529 L257.674,555.483 L256.261,555.414 L254.893,555.322 L253.571,555.207 L252.301,555.07 L251.084,554.909 L249.924,554.726 L248.825,554.521 L247.789,554.295 L246.821,554.052 L245.925,553.791 L245.102,553.517 L244.356,553.233 L243.69,552.943 L243.104,552.653 L242.597,552.368 L242.066,552.018 L241.673,551.725 L241.928,551.918 L242.156,552.121 L242.262,552.253 L242.298,552.321 L242.279,552.315 L242.216,552.23 L242.123,552.065 L242.008,551.823 L241.881,551.507 L241.747,551.122 L241.612,550.671 L241.479,550.159 L241.351,549.591 L241.23,548.97 L241.118,548.3 L241.015,547.586 L240.923,546.828 L240.841,546.032 L240.773,545.227 L240.689,543.936 L240.612,542.077 L240.579,540.118 L240.583,538.074 L240.624,535.962 L240.699,533.797 L240.803,531.61 L241.009,528.255 L241.263,524.875 L241.451,522.646 L241.65,520.444 L241.856,518.28 L242.066,516.166 L242.274,514.115 L242.476,512.137 L242.668,510.242 L242.847,508.446 L242.97,507.169 L243.047,506.349 L243.118,505.556 L243.184,504.791 L243.243,504.053 L243.296,503.343 L243.341,502.659 L243.377,501.997 L243.405,501.354 L243.421,500.764 L243.425,500.542 L243.425,500.542 C243.425,500.53 243.425,500.519 243.425,500.507 L243.425,500.507 L243.455,498.252 L243.527,493.706 L243.615,489.131 L243.718,484.528 L243.832,479.899 L243.956,475.25 L244.167,468.226 L244.492,458.771 L244.864,449.23 L245.256,439.608 L245.683,429.914 L246.141,420.153 L246.617,410.334 L247.094,400.463 L247.588,390.549 L248.344,375.606 L249.309,355.588 L250.211,335.524 L250.807,320.479 L251.157,310.46 L251.466,300.46 L251.711,290.486 L251.904,280.546 L252.024,270.647 L252.06,260.797 L252.014,251.002 L251.864,241.272 L251.581,231.62 L251.277,224.437 L251.028,219.67 L250.721,214.927 L250.361,210.21 L249.917,205.518 L249.408,200.856 L248.704,196.227 L247.612,191.648 L246.972,189.381 C246.972,189.381 246.972,189.381 246.972,189.381 C246.906,187.463 245.298,185.962 243.381,186.028 C241.463,186.094 239.962,187.702 240.028,189.619 L240.028,189.619" fill="#000000"/>
    </g>
    <path d="M231.087,615.974 L233.785,618.504 L239.342,620.155 L244.926,621.05 L250.461,621.399 L255.927,621.537 L261.316,621.547 L265.279,621.599 L267.877,621.641 L270.484,621.685 L273.071,621.758 L274.317,621.797 L274.242,621.789 L276.383,621.886 L280.581,622.076 L284.774,622.283 L288.994,622.503 L295.358,623.02 L303.795,624.337 L312.051,627.015 L320.336,629.918 L326.725,631.485 L331.093,632.107 L335.467,632.677 L339.866,633.189 L342.114,633.425 L342.114,633.425 C342.139,633.428 342.164,633.43 342.189,633.433 L342.189,633.433 L345.418,633.746 L351.971,634.315 L358.538,634.808 L365.084,635.232 L371.609,635.599 L378.114,635.921 L387.825,636.345 L400.725,636.861 L413.563,637.405 L423.132,637.883 L429.477,638.256 L435.82,638.686 L442.147,639.183 L445.275,639.458 L445.275,639.458 C445.281,639.458 445.287,639.459 445.294,639.459 L445.294,639.459 L446.196,639.537 L448.147,639.676 L451.079,639.815 L454.963,639.882 L458.836,639.828 L462.65,639.672 L466.405,639.433 L470.101,639.132 L473.737,638.786 L479.069,638.227 L484.3,637.666 L487.7,637.322 L491.047,637.019 L494.335,636.772 L497.565,636.596 L500.738,636.505 L502.227,636.495 L502.227,636.495 C507.747,636.451 512.186,631.941 512.143,626.421 C512.099,620.9 507.588,616.461 502.068,616.505 C502.068,616.505 502.068,616.505 502.068,616.505 L500.14,616.523 L496.466,616.636 L492.833,616.838 L489.241,617.109 L485.688,617.432 L482.169,617.788 L476.981,618.344 L471.842,618.884 L468.466,619.206 L465.124,619.482 L461.813,619.697 L458.533,619.838 L455.282,619.893 L452.011,619.845 L449.555,619.733 L447.904,619.618 L447.001,619.541 L447.02,619.542 L443.711,619.253 L437.17,618.74 L430.647,618.3 L424.128,617.918 L414.406,617.434 L401.522,616.892 L388.693,616.381 L379.098,615.966 L372.725,615.654 L366.367,615.3 L360.023,614.893 L353.69,614.424 L347.335,613.877 L344.106,613.567 L344.181,613.575 L342.162,613.366 L338.032,612.891 L333.887,612.357 L329.744,611.775 L323.378,611.388 L314.673,611.502 L305.951,611.311 L297.414,609.818 L291.044,608.351 L286.772,607.341 L282.468,606.412 L278.165,605.579 L276.053,605.211 L276.053,605.211 C276.028,605.209 276.003,605.206 275.978,605.203 L275.978,605.203 L274.506,604.97 L271.643,604.577 L268.782,604.25 L265.899,604.007 L261.616,603.768 L255.979,603.592 L250.398,603.698 L244.885,604.086 L239.436,605.009 L233.992,606.591 L231.208,609.026 C229.29,608.993 227.707,610.521 227.674,612.44 C227.641,614.358 229.169,615.94 231.087,615.974 L231.087,615.974" fill="#000000"/>
    <path d="M231.23,678.973 L233.068,680.952 L236.628,682.333 L241.913,683.422 L248.921,684.172 L255.907,684.6 L262.909,684.774 L269.929,684.915 L276.977,684.952 L284.054,684.91 L287.589,684.895 L287.589,684.895 L291.796,684.821 L300.228,685.032 L308.658,685.65 L316.954,688.723 L325.397,689.908 L333.895,690.348 L342.403,690.744 L350.918,691.098 L359.436,691.411 L367.955,691.683 L376.471,691.915 L384.981,692.108 L393.483,692.261 L401.973,692.375 L410.448,692.451 L418.905,692.49 L423.137,692.495 L423.137,692.495 C423.14,692.495 423.144,692.495 423.147,692.495 L423.147,692.495 L454.147,692.496 L485.147,692.496 L485.147,692.496 L485.374,692.496 L485.903,692.496 L486.525,692.496 L487.23,692.496 L488.01,692.496 L488.853,692.496 L489.751,692.496 L490.694,692.496 L492.171,692.496 L494.208,692.496 L496.25,692.496 L498.22,692.496 L499.605,692.496 L500.465,692.496 L501.263,692.496 L501.991,692.496 L502.638,692.496 L503.194,692.496 L503.65,692.496 L503.997,692.496 L504.224,692.495 L504.322,692.495 L504.282,672.505 L504.155,672.505 L504.021,672.505 L503.848,672.505 L503.633,672.505 L503.376,672.505 L503.075,672.505 L502.729,672.505 L502.337,672.505 L501.898,672.505 L501.41,672.505 L501.147,672.505 L501.147,672.505 C495.627,672.505 491.152,676.98 491.152,682.5 C491.152,688.02 495.627,692.495 501.147,692.495 C501.147,692.495 501.147,692.495 501.147,692.495 L501.41,692.495 L501.898,692.495 L502.337,692.495 L502.729,692.495 L503.075,692.495 L503.376,692.495 L503.633,692.495 L503.848,692.495 L504.021,692.495 L504.155,692.495 L504.282,692.495 L504.322,672.505 L504.224,672.505 L503.997,672.505 L503.65,672.505 L503.194,672.505 L502.638,672.504 L501.991,672.504 L501.263,672.504 L500.465,672.504 L499.605,672.504 L498.22,672.504 L496.25,672.504 L494.208,672.504 L492.171,672.504 L490.694,672.504 L489.751,672.504 L488.853,672.504 L488.01,672.504 L487.23,672.504 L486.525,672.504 L485.903,672.504 L485.374,672.504 L485.147,672.504 L485.147,672.504 L454.147,672.504 L423.147,672.505 L423.159,672.505 L418.993,672.501 L410.625,672.465 L402.239,672.392 L393.84,672.281 L385.429,672.133 L377.01,671.946 L368.587,671.72 L360.162,671.456 L351.739,671.152 L343.32,670.81 L334.91,670.428 L326.51,670.006 L318.082,670.247 L309.542,672.292 L301.175,671.798 L292.855,670.811 L288.706,670.105 L288.706,670.105 C288.706,670.105 288.706,670.105 288.706,670.105 L288.706,670.105 L285.136,669.554 L278,668.511 L270.827,667.663 L263.617,667.063 L256.376,666.668 L249.103,666.723 L241.836,667.324 L236.4,668.464 L232.806,669.963 L231.065,672.027 C231.065,672.027 231.065,672.027 231.065,672.027 C229.147,672.073 227.629,673.665 227.674,675.583 C227.72,677.501 229.312,679.019 231.23,678.973 L231.23,678.973" fill="#000000"/>
    <path d="M229.112,753.974 L233.644,757.151 L242.782,758.837 L256.523,759.627 L274.864,758.929 L293.207,757.552 L311.555,756.905 L329.963,759.659 L357.509,759.301 L394.219,758.465 L421.726,757.836 L440.039,757.449 L458.335,757.106 L476.608,756.824 L494.858,756.62 L513.079,756.51 L522.163,756.495 L522.163,756.495 C527.684,756.487 532.152,752.004 532.143,746.484 C532.134,740.964 527.652,736.496 522.132,736.505 C522.132,736.505 522.132,736.505 522.132,736.505 L512.959,736.519 L494.634,736.629 L476.3,736.835 L457.959,737.118 L439.615,737.463 L421.267,737.854 L393.759,738.489 L357.099,739.345 L329.63,740.118 L311.378,743.497 L293.086,743.335 L274.816,742.269 L256.574,741.676 L242.902,742.389 L233.778,743.942 L229.183,747.026 C227.264,747.007 225.693,748.546 225.674,750.465 C225.654,752.383 227.194,753.954 229.112,753.974 L229.112,753.974" fill="#000000"/>
    <path d="M239.148,805.974 L264.648,810.905 L290.148,810.022 L290.137,810.022 L292.087,809.899 L296.02,809.523 L300.027,809.253 L304.109,809.199 L308.26,809.284 L312.471,809.565 L316.723,810.676 L321.03,811.635 L325.386,812.563 L329.794,813.102 L336.488,813.243 L345.515,813.405 L354.625,813.517 L363.775,813.559 L370.651,813.531 L375.234,813.479 L379.79,813.397 L384.329,813.283 L388.845,813.133 L393.333,812.944 L397.788,812.714 L402.206,812.44 L406.582,812.12 L410.912,811.749 L415.19,811.325 L419.412,810.844 L423.575,810.304 L427.673,809.701 L429.743,809.367 L429.743,809.367 C429.753,809.366 429.762,809.364 429.772,809.362 L429.772,809.362 L431.794,809.029 L435.796,808.394 L439.796,807.793 L443.809,807.223 L447.833,806.687 L451.866,806.186 L455.906,805.722 L459.951,805.297 L463.999,804.913 L468.047,804.571 L472.093,804.273 L476.135,804.021 L480.171,803.816 L484.198,803.66 L488.215,803.555 L492.219,803.502 L494.182,803.495 L494.182,803.495 C499.702,803.477 504.162,798.986 504.143,793.466 C504.124,787.946 499.634,783.486 494.113,783.505 L491.95,783.512 L487.687,783.57 L483.421,783.684 L479.154,783.85 L474.887,784.068 L470.622,784.335 L466.361,784.65 L462.107,785.011 L457.861,785.415 L453.625,785.86 L449.4,786.346 L445.19,786.87 L440.996,787.43 L436.819,788.024 L432.662,788.65 L428.545,789.304 L426.523,789.638 L426.552,789.633 L424.754,789.925 L420.995,790.481 L417.146,790.984 L413.212,791.434 L409.2,791.834 L405.116,792.187 L400.965,792.493 L396.755,792.756 L392.49,792.978 L388.176,793.161 L383.82,793.308 L379.426,793.421 L375.001,793.503 L370.564,793.556 L363.859,793.587 L354.863,793.553 L345.861,793.449 L336.894,793.298 L330.221,793.168 L325.798,793.517 L321.4,794.257 L317.041,795.03 L312.725,795.967 L308.477,796.09 L304.287,796.039 L300.158,795.874 L296.095,795.524 L292.108,795.107 L290.158,794.978 L290.158,794.978 C290.155,794.978 290.151,794.978 290.148,794.978 L290.148,794.978 L264.648,794.095 L239.148,799.026 C237.229,799.026 235.673,800.581 235.673,802.5 C235.673,804.419 237.229,805.974 239.148,805.974 L239.148,805.974" fill="#000000"/>
    <g>
      <path d="M585.5,582.5 C585.125,611.913 587.328,641.532 582.5,670.5 C575.972,709.67 571.633,758.164 579.5,797.5 C580.768,803.838 575.282,824.282 579.5,828.5 C580.795,829.795 649.623,826.417 656.957,825.5 C665.037,824.49 725.471,824.331 728.301,821.5 C732.354,817.447 726.5,773.745 726.5,767.5 C726.5,725.031 722.5,682.682 722.5,640.5 C722.5,622.341 733.458,589.937 722.5,573.5 C720.089,569.884 702.77,573.033 699.5,573.5 C665.082,578.417 626.881,575.155 593.5,583.5" fill="#FFFFFF"/>
      <path d="M582.026,582.465 L580.888,585.212 L579.306,590.758 L578.329,599.098 L577.626,610.19 L577.323,618.457 L577.117,623.921 L576.931,629.363 L576.727,634.775 L576.478,640.155 L576.179,645.503 L575.803,650.818 L575.333,656.1 L574.925,660.014 L574.614,662.6 L574.266,665.205 L573.887,667.802 L573.695,669.066 L573.698,669.046 L573.414,670.892 L572.849,674.663 L572.297,678.497 L571.765,682.378 L571.27,686.307 L570.804,690.276 L570.362,694.283 L569.945,698.324 L569.569,702.397 L569.229,706.498 L568.921,710.622 L568.645,714.766 L568.419,718.928 L568.232,723.104 L568.084,727.289 L567.981,731.482 L567.929,735.677 L567.92,739.872 L567.961,744.063 L568.057,748.247 L568.202,752.42 L568.405,756.579 L568.661,760.72 L568.971,764.84 L569.235,768.941 L569.549,773.017 L569.91,777.067 L570.334,781.087 L570.82,785.073 L571.353,789.026 L571.956,792.939 L572.612,796.814 L572.968,798.77 L572.948,798.663 L572.999,798.971 L573.017,799.276 L573.019,799.638 L573.012,800.159 L572.986,800.811 L572.928,801.569 L572.848,802.418 L572.748,803.343 L572.628,804.333 L572.493,805.379 L572.254,807.043 L571.884,809.366 L571.474,811.772 L571.026,814.227 L570.657,816.093 L570.318,817.348 L569.883,818.578 L569.227,819.805 L569.07,821.063 L568.951,822.324 L568.877,823.594 L568.858,824.881 L568.907,826.195 L569.043,827.554 L569.298,828.978 L569.717,830.491 L570.372,832.113 L571.365,833.835 L572.31,835.044 L572.31,835.044 C572.807,835.59 573.363,836.077 573.97,836.496 L573.97,836.496 L574.009,836.531 L576.551,837.809 L578.151,838.243 L579.138,838.424 L579.942,838.548 L580.702,838.655 L581.475,838.71 L582.284,838.731 L583.141,838.744 L584.05,838.751 L585.016,838.752 L586.039,838.748 L587.119,838.738 L588.255,838.724 L589.444,838.705 L590.686,838.681 L591.977,838.653 L593.315,838.621 L594.699,838.585 L596.125,838.545 L597.59,838.502 L599.093,838.455 L601.407,838.379 L604.597,838.266 L607.888,838.142 L611.253,838.008 L614.67,837.866 L619.836,837.64 L624.991,837.402 L628.385,837.239 L631.709,837.074 L634.946,836.908 L638.07,836.743 L640.329,836.62 L641.789,836.539 L643.205,836.459 L644.578,836.38 L645.905,836.302 L647.182,836.225 L648.408,836.15 L649.578,836.077 L650.692,836.005 L651.745,835.935 L652.736,835.867 L653.663,835.802 L654.524,835.738 L655.317,835.676 L656.043,835.617 L656.702,835.559 L657.298,835.502 L657.841,835.444 L658.144,835.409 L658.128,835.41 L658.327,835.387 L658.619,835.359 L658.986,835.329 L659.467,835.294 L660.043,835.257 L660.705,835.22 L661.443,835.182 L662.252,835.143 L663.126,835.105 L664.062,835.067 L665.056,835.029 L666.105,834.992 L667.204,834.955 L668.352,834.917 L669.545,834.88 L670.78,834.843 L672.708,834.787 L675.399,834.711 L678.21,834.635 L681.12,834.556 L684.109,834.475 L687.158,834.391 L691.794,834.257 L696.451,834.113 L699.538,834.009 L702.581,833.899 L705.563,833.782 L708.467,833.657 L711.272,833.523 L713.308,833.415 L714.63,833.34 L715.91,833.263 L717.155,833.183 L718.361,833.099 L719.528,833.013 L720.653,832.922 L721.737,832.828 L722.778,832.73 L723.776,832.626 L724.731,832.517 L725.646,832.402 L726.524,832.277 L727.37,832.142 L728.196,831.991 L729.017,831.816 L729.865,831.603 L730.791,831.321 L731.891,830.896 L733.345,830.141 L734.801,829.083 L734.801,829.083 C735.112,828.817 735.406,828.531 735.682,828.229 L735.682,828.229 L735.775,828.126 L736.71,826.937 L737.54,825.556 L738.102,824.326 L738.498,823.217 L738.788,822.194 L739.009,821.227 L739.18,820.295 L739.316,819.38 L739.425,818.472 L739.511,817.561 L739.58,816.642 L739.633,815.711 L739.672,814.765 L739.698,813.803 L739.714,812.823 L739.718,811.343 L739.691,809.29 L739.632,807.147 L739.544,804.945 L739.431,802.692 L739.296,800.399 L739.06,796.926 L738.695,792.252 L738.396,788.76 L738.19,786.474 L737.984,784.247 L737.78,782.082 L737.581,779.996 L737.388,778.001 L737.207,776.113 L737.038,774.347 L736.923,773.116 L736.852,772.344 L736.786,771.61 L736.726,770.919 L736.671,770.273 L736.623,769.677 L736.582,769.132 L736.548,768.645 L736.521,768.219 L736.503,767.864 L736.492,767.589 L736.489,767.412 L736.491,767.431 L736.491,767.471 L736.48,763.49 L736.392,755.449 L736.227,747.396 L735.998,739.361 L735.715,731.344 L735.392,723.344 L734.857,711.385 L734.11,695.487 L733.578,683.609 L733.258,675.724 L732.979,667.852 L732.753,659.997 L732.592,652.162 L732.506,644.345 L732.495,640.471 L732.495,640.592 L732.503,639.73 L732.558,638.197 L732.661,636.621 L732.809,634.924 L733,633.118 L733.229,631.216 L733.491,629.228 L733.781,627.162 L734.094,625.027 L734.423,622.832 L734.934,619.439 L735.613,614.784 L736.247,609.997 L736.666,606.316 L736.906,603.818 L737.101,601.338 L737.248,598.851 L737.338,596.358 L737.365,593.863 L737.319,591.369 L737.191,588.877 L736.971,586.391 L736.648,583.911 L736.32,581.999 L736.053,580.701 L735.764,579.467 L735.439,578.237 L735.076,577.013 L734.673,575.794 L734.228,574.583 L733.738,573.381 L733.202,572.189 L732.618,571.01 L731.983,569.846 L731.297,568.699 L730.876,568.044 L730.876,568.044 C730.753,567.855 730.624,567.671 730.488,567.491 L730.488,567.491 L730.364,567.326 L729.015,565.85 L727.27,564.487 L725.619,563.572 L724.105,562.959 L722.711,562.543 L721.41,562.257 L720.175,562.061 L718.984,561.929 L717.824,561.846 L716.684,561.802 L715.558,561.788 L713.937,561.815 L711.769,561.918 L709.601,562.082 L707.504,562.29 L705.506,562.524 L703.639,562.77 L702.335,562.955 L701.526,563.074 L700.786,563.186 L700.106,563.291 L699.495,563.387 L698.96,563.471 L698.511,563.541 L698.164,563.593 L698.058,563.608 L698.124,563.599 L696.508,563.824 L693.369,564.224 L690.236,564.58 L687.072,564.901 L683.88,565.189 L680.66,565.447 L675.765,565.788 L669.176,566.169 L662.53,566.491 L655.821,566.783 L649.062,567.074 L642.265,567.393 L635.442,567.769 L630.299,568.108 L626.857,568.368 L623.432,568.659 L620.009,568.986 L616.589,569.352 L613.173,569.761 L609.764,570.219 L606.362,570.728 L602.968,571.294 L599.585,571.919 L596.214,572.61 L592.856,573.37 L591.13,573.79 L591.13,573.79 C585.767,575.099 582.481,580.507 583.79,585.87 C585.099,591.233 590.507,594.519 595.87,593.21 C595.87,593.21 595.87,593.21 595.87,593.21 L597.28,592.865 L600.236,592.192 L603.231,591.575 L606.262,591.011 L609.328,590.498 L612.427,590.032 L615.559,589.61 L618.72,589.229 L621.91,588.886 L625.126,588.579 L628.368,588.302 L631.615,588.056 L636.543,587.73 L643.201,587.363 L649.922,587.048 L656.692,586.756 L663.499,586.459 L670.331,586.127 L677.156,585.732 L682.263,585.375 L685.679,585.1 L689.092,584.791 L692.5,584.444 L695.903,584.055 L699.26,583.626 L700.876,583.401 L700.876,583.401 C700.898,583.398 700.92,583.395 700.942,583.392 L700.942,583.392 L701.163,583.359 L701.588,583.295 L702.059,583.221 L702.583,583.139 L703.158,583.049 L703.783,582.953 L704.452,582.851 L705.148,582.748 L706.258,582.59 L707.847,582.379 L709.496,582.183 L711.153,582.014 L712.761,581.885 L714.307,581.804 L715.38,581.78 L715.985,581.782 L716.513,581.796 L716.948,581.818 L717.267,581.841 L717.447,581.853 L717.455,581.832 L717.254,581.74 L716.804,581.516 L716.082,581.056 L715.116,580.22 L714.388,579.345 L714.512,579.509 L714.124,578.956 L714.209,579.077 L714.486,579.518 L714.754,579.985 L715.011,580.481 L715.257,581.006 L715.493,581.561 L715.717,582.147 L715.929,582.763 L716.128,583.409 L716.313,584.086 L716.484,584.791 L716.63,585.465 L716.833,586.567 L717.062,588.208 L717.228,589.946 L717.331,591.772 L717.374,593.677 L717.359,595.652 L717.289,597.69 L717.17,599.781 L717.004,601.919 L716.801,604.065 L716.428,607.375 L715.83,611.899 L715.165,616.463 L714.652,619.871 L714.313,622.134 L713.984,624.385 L713.671,626.621 L713.38,628.839 L713.117,631.038 L712.891,633.216 L712.709,635.374 L712.579,637.514 L712.513,639.547 L712.505,640.408 L712.505,640.408 C712.505,640.449 712.505,640.489 712.505,640.529 L712.505,640.529 L712.517,644.565 L712.606,652.575 L712.772,660.573 L713.002,668.559 L713.285,676.535 L713.609,684.506 L714.144,696.425 L714.89,712.28 L715.422,724.153 L715.742,732.049 L716.021,739.934 L716.248,747.807 L716.41,755.669 L716.497,763.548 L716.509,767.529 L716.509,767.529 C716.509,767.542 716.509,767.556 716.509,767.569 L716.509,767.569 L716.513,767.895 L716.527,768.411 L716.549,768.934 L716.579,769.477 L716.615,770.047 L716.658,770.65 L716.706,771.286 L716.76,771.956 L716.82,772.661 L716.885,773.399 L716.954,774.171 L717.028,774.979 L717.147,776.244 L717.317,778.029 L717.499,779.919 L717.691,781.901 L717.888,783.961 L718.089,786.087 L718.291,788.264 L718.489,790.468 L718.777,793.81 L719.128,798.286 L719.353,801.581 L719.479,803.701 L719.583,805.749 L719.663,807.708 L719.717,809.558 L719.741,811.303 L719.74,812.524 L719.729,813.27 L719.712,813.967 L719.687,814.613 L719.656,815.202 L719.62,815.727 L719.581,816.181 L719.542,816.555 L719.507,816.837 L719.484,817.01 L719.485,817.057 L719.532,816.951 L719.658,816.658 L719.924,816.14 L720.43,815.364 L721.014,814.669 L720.921,814.771 L721.802,813.917 L723.104,812.991 L724.126,812.493 L724.634,812.319 L724.811,812.279 L724.759,812.301 L724.535,812.355 L724.173,812.425 L723.696,812.504 L723.12,812.588 L722.455,812.674 L721.709,812.76 L720.89,812.845 L720.003,812.93 L719.053,813.013 L718.044,813.094 L716.981,813.174 L715.866,813.251 L714.703,813.327 L713.496,813.4 L712.255,813.471 L710.316,813.573 L707.603,813.704 L704.776,813.826 L701.857,813.942 L698.866,814.051 L695.829,814.154 L691.216,814.298 L686.604,814.432 L683.566,814.516 L680.579,814.598 L677.663,814.677 L674.838,814.755 L672.125,814.832 L670.176,814.889 L668.919,814.927 L667.701,814.965 L666.523,815.004 L665.387,815.043 L664.295,815.082 L663.25,815.123 L662.252,815.163 L661.303,815.205 L660.405,815.248 L659.556,815.293 L658.756,815.339 L658.002,815.388 L657.287,815.442 L656.601,815.502 L655.984,815.566 L655.785,815.59 L655.785,815.59 C655.78,815.59 655.775,815.591 655.77,815.591 L655.77,815.591 L655.706,815.6 L655.385,815.635 L654.945,815.678 L654.403,815.726 L653.768,815.778 L653.047,815.835 L652.246,815.894 L651.369,815.957 L650.421,816.022 L649.405,816.09 L648.325,816.16 L647.184,816.232 L645.985,816.306 L644.732,816.381 L643.428,816.458 L642.076,816.537 L640.679,816.616 L639.242,816.697 L637.014,816.818 L633.922,816.983 L630.716,817.148 L627.422,817.313 L624.067,817.476 L618.959,817.714 L613.835,817.941 L610.456,818.084 L607.131,818.218 L603.886,818.342 L600.74,818.455 L598.463,818.532 L596.992,818.579 L595.56,818.623 L594.172,818.663 L592.83,818.699 L591.537,818.731 L590.298,818.759 L589.115,818.783 L587.992,818.802 L586.933,818.816 L585.943,818.826 L585.026,818.831 L584.187,818.831 L583.435,818.827 L582.776,818.818 L582.223,818.805 L581.794,818.815 L581.518,818.865 L581.457,818.919 L581.756,819.019 L582.851,819.358 L585.076,820.528 L585.03,820.504 L586.69,821.956 L587.254,822.746 L587.566,823.493 L587.646,823.966 L587.588,824.169 L587.458,824.13 L587.297,823.887 L587.128,823.47 L586.966,822.907 L586.818,822.221 L586.687,821.431 L586.575,820.552 L586.013,819.569 L585.718,818.527 L585.557,817.457 L585.514,815.767 L585.578,813.402 L585.725,810.984 L585.91,808.566 L586.055,806.782 L586.15,805.603 L586.233,804.438 L586.301,803.29 L586.349,802.159 L586.374,801.042 L586.379,799.933 L586.344,798.821 L586.254,797.687 L586.11,796.644 L586.052,796.337 L586.052,796.337 C586.045,796.301 586.039,796.266 586.032,796.23 L586.032,796.23 L585.669,794.485 L584.99,790.881 L584.397,787.218 L583.868,783.503 L583.42,779.74 L583.039,775.932 L582.717,772.085 L582.466,768.201 L582.283,764.284 L582.256,760.337 L582.284,756.368 L582.364,752.381 L582.485,748.378 L582.655,744.364 L582.864,740.34 L583.113,736.312 L583.405,732.281 L583.729,728.252 L584.085,724.227 L584.479,720.21 L584.905,716.204 L585.349,712.212 L585.824,708.238 L586.329,704.285 L586.855,700.356 L587.392,696.454 L587.953,692.583 L588.537,688.747 L589.135,684.948 L589.732,681.188 L590.346,677.473 L590.978,673.793 L591.302,671.954 L591.302,671.954 C591.303,671.947 591.304,671.94 591.305,671.934 L591.305,671.934 L591.556,670.481 L592.002,667.64 L592.401,664.799 L592.764,661.932 L593.237,657.654 L593.716,651.992 L594.059,646.343 L594.276,640.707 L594.367,635.086 L594.357,629.483 L594.247,623.898 L594.027,618.327 L593.594,610.027 L592.666,599.024 L591.603,590.797 L590.056,585.305 L588.974,582.535 C588.974,582.535 588.974,582.535 588.974,582.535 C588.993,580.617 587.454,579.046 585.535,579.026 C583.617,579.007 582.046,580.546 582.026,582.465 L582.026,582.465" fill="#000000"/>
    </g>
    <path d="M610.026,647.5 L604.302,709.5 L603.505,771.5 L603.505,771.5 C603.505,777.02 607.98,781.495 613.5,781.495 C619.02,781.495 623.495,777.02 623.495,771.5 C623.495,771.5 623.495,771.5 623.495,771.5 L622.698,709.5 L616.974,647.5 C616.974,645.581 615.419,644.026 613.5,644.026 C611.581,644.026 610.026,645.581 610.026,647.5 L610.026,647.5" fill="#000000"/>
    <path d="M612.204,647.723 L612.192,648.875 L612.971,650.272 L614.094,651.396 L615.367,652.161 L616.696,652.731 L618.048,653.149 L619.405,653.433 L620.754,653.61 L622.089,653.706 L623.407,653.734 L625.301,653.664 L627.786,653.414 L630.197,653.049 L632.473,652.619 L634.593,652.177 L636.033,651.894 L636.894,651.712 L637.734,651.557 L638.51,651.434 L639.213,651.32 L639.838,651.239 L640.376,651.19 L640.822,651.153 L641.171,651.13 L641.42,651.115 L641.576,651.09 L641.654,651.042 L641.491,650.901 L640.949,650.527 L641.132,650.628 L640.582,650.103 L640.099,649.457 L639.918,649.048 L639.915,648.886 L640.012,648.939 L640.165,649.173 L640.346,649.554 L640.537,650.059 L640.666,650.671 L640.753,651.368 L640.804,652.131 L640.84,653.405 L640.793,655.212 L640.624,657.082 L640.222,658.978 L637.175,660.677 L636.995,662.488 L636.887,663.787 L636.818,664.624 L636.753,665.431 L636.693,666.203 L636.64,666.94 L636.595,667.643 L636.56,668.321 L636.537,668.99 L636.531,669.41 L636.531,669.41 C636.53,669.452 636.53,669.493 636.53,669.535 L636.53,669.535 L636.534,671.2 L636.576,674.629 L636.664,678.08 L636.793,681.517 L637.055,686.622 L637.518,693.397 L638.089,700.145 L638.742,706.837 L639.453,713.474 L640.195,720.055 L640.945,726.58 L641.68,733.048 L642.377,739.458 L643.011,745.81 L643.561,752.102 L643.903,756.761 L644.093,759.835 L644.251,762.915 L644.373,765.98 L644.457,769.029 L644.5,772.062 L644.505,773.537 L644.505,773.537 C644.525,779.057 649.016,783.516 654.537,783.495 C660.057,783.475 664.516,778.984 664.495,773.463 C664.495,773.463 664.495,773.463 664.495,773.463 L664.489,771.776 L664.441,768.476 L664.349,765.18 L664.217,761.887 L664.047,758.599 L663.841,755.293 L663.477,750.359 L662.904,743.821 L662.251,737.298 L661.543,730.789 L660.804,724.293 L660.056,717.811 L659.324,711.343 L658.63,704.888 L657.996,698.448 L657.444,692.022 L656.995,685.583 L656.74,680.752 L656.614,677.553 L656.526,674.358 L656.477,671.131 L656.47,669.465 L656.469,669.59 L656.467,669.592 L656.473,669.306 L656.493,668.88 L656.525,668.341 L656.568,667.71 L656.62,666.998 L656.68,666.216 L656.746,665.37 L656.852,663.993 L656.959,662.011 L654.18,659.74 L654,657.577 L653.981,655.386 L653.986,653.22 L653.982,651.624 L653.962,650.548 L653.94,649.475 L653.916,648.401 L653.91,647.312 L653.845,646.205 L653.7,645.064 L653.443,643.871 L653.029,642.598 L652.375,641.227 L651.354,639.778 L650.198,638.621 L650.051,638.473 L650.051,638.473 C649.876,638.341 649.695,638.216 649.509,638.099 L649.509,638.099 L648.648,637.521 L647.253,636.711 L645.837,636.065 L644.422,635.562 L643.021,635.173 L641.637,634.885 L640.273,634.688 L638.929,634.556 L637.603,634.476 L636.297,634.464 L635.008,634.488 L633.699,634.544 L631.823,634.707 L629.439,634.979 L627.166,635.331 L625.034,635.744 L623.032,636.192 L621.631,636.55 L620.797,636.801 L620.023,637.058 L619.313,637.326 L618.668,637.621 L618.08,637.962 L617.539,638.357 L617.018,638.839 L616.429,639.564 L615.584,640.437 L614.796,641.277 C613.015,640.561 610.992,641.424 610.277,643.204 C609.561,644.985 610.424,647.008 612.204,647.723 L612.204,647.723" fill="#000000"/>
    <path d="M670.026,679.501 L666.829,680.882 L665.285,683.778 L664.76,686.723 L664.893,689.635 L665.456,692.494 L666.232,695.301 L667.197,698.052 L668.358,700.743 L668.923,704.867 L666.748,710.828 L667.583,716.318 L668.613,721.711 L669.653,727.039 L670.669,732.31 L671.626,737.531 L672.493,742.711 L673.063,746.545 L673.397,749.075 L673.697,751.627 L673.955,754.175 L674.168,756.719 L674.331,759.261 L674.443,761.802 L674.499,764.344 L674.505,765.558 L674.505,765.558 C674.537,771.079 679.038,775.528 684.558,775.495 C690.079,775.463 694.528,770.962 694.495,765.442 C694.495,765.442 694.495,765.442 694.495,765.442 L694.485,763.886 L694.415,760.911 L694.281,757.964 L694.09,755.044 L693.845,752.151 L693.552,749.284 L693.215,746.442 L692.835,743.596 L692.207,739.399 L691.283,733.918 L690.289,728.519 L689.257,723.195 L688.222,717.937 L687.213,712.738 L686.113,707.615 L682.17,702.927 L681.56,699.03 L682.025,696.354 L682.374,693.72 L682.621,691.123 L682.75,688.556 L682.554,686.018 L681.812,683.488 L680.172,680.88 L676.974,679.499 C676.974,679.499 676.974,679.499 676.974,679.499 C676.974,677.581 675.418,676.026 673.499,676.026 C671.581,676.026 670.026,677.582 670.026,679.501 L670.026,679.501" fill="#000000"/>
    <path d="M670.195,683.72 L670.127,684.452 L670.36,685.65 L671.098,686.816 L672.373,687.847 L673.822,688.693 L675.337,689.25 L676.876,689.625 L678.425,689.849 L679.974,689.949 L681.518,689.918 L683.058,689.847 L684.584,689.673 L686.097,689.434 L688.317,688.978 L691.23,688.248 L694.041,687.43 L696.034,686.797 L697.289,686.383 L698.512,685.984 L699.679,685.606 L700.783,685.258 L701.824,685.094 L702.775,685.06 L703.617,685.088 L704.328,685.195 L704.882,685.358 L705.109,685.487 L705.151,685.584 L705.212,685.687 L705.203,685.809 L705.129,685.918 L704.956,686.063 L704.666,686.235 L703.544,687.251 L702.618,687.685 L702.023,687.064 L702.089,687.14 L701.247,686.041 L700.636,684.918 L700.357,684.204 L700.234,683.798 L700.186,683.617 L700.173,683.601 L700.175,683.712 L700.186,684.116 L700.185,684.842 L700.163,685.706 L700.119,686.702 L700.056,687.776 L699.979,688.888 L699.893,690.002 L699.805,691.087 L699.719,692.117 L699.66,692.845 L699.624,693.315 L699.592,693.762 L699.564,694.196 L699.541,694.626 L699.525,695.077 L699.52,695.405 L699.52,695.405 C699.519,695.458 699.519,695.512 699.519,695.565 L699.519,695.565 L699.526,696.682 L699.584,699.102 L699.701,701.57 L699.872,704.019 L700.092,706.449 L700.357,708.861 L700.823,712.404 L701.559,717.093 L702.4,721.752 L703.769,728.583 L705.652,737.531 L706.968,744.081 L707.737,748.325 L708.401,752.532 L708.806,755.608 L709.028,757.616 L709.214,759.646 L709.356,761.661 L709.453,763.66 L709.501,765.643 L709.505,766.565 L709.505,766.565 C709.541,772.085 714.045,776.531 719.565,776.495 C725.085,776.459 729.531,771.955 729.495,766.435 L729.485,765.134 L729.42,762.673 L729.297,760.231 L729.121,757.807 L728.897,755.402 L728.624,752.976 L728.147,749.403 L727.407,744.751 L726.567,740.14 L725.213,733.41 L723.366,724.648 L722.065,718.185 L721.297,713.973 L720.63,709.781 L720.212,706.656 L719.983,704.618 L719.794,702.596 L719.646,700.589 L719.544,698.596 L719.489,696.552 L719.481,695.435 L719.48,695.595 L719.477,695.701 L719.477,695.63 L719.485,695.443 L719.502,695.171 L719.525,694.83 L719.555,694.437 L719.609,693.744 L719.695,692.682 L719.789,691.499 L719.883,690.224 L719.97,688.882 L720.044,687.493 L720.097,686.071 L720.117,684.619 L720.091,683.184 L720.033,682.104 L719.961,681.303 L719.85,680.446 L719.679,679.5 L719.406,678.414 L718.948,677.112 L718.127,675.497 L717.044,674.011 L716.977,673.936 L716.977,673.936 C716.788,673.721 716.59,673.513 716.382,673.315 L716.382,673.315 L715.168,673.474 L713.434,673.972 L712.481,673.67 L711.597,673.384 L710.765,673.103 L709.953,672.873 L709.169,672.663 L708.322,672.483 L707.141,672.265 L705.685,672.081 L704.244,671.965 L702.806,671.884 L701.361,671.844 L699.901,671.768 L698.412,671.589 L696.905,671.453 L695.386,671.357 L693.843,671.298 L691.561,671.269 L688.589,671.338 L685.715,671.512 L683.65,671.695 L682.354,671.843 L681.126,672.014 L679.977,672.234 L678.909,672.43 L677.937,672.683 L677.066,672.976 L676.3,673.324 L675.636,673.75 L675.044,674.348 L674.428,675.005 L673.855,675.802 L673.267,676.708 L672.805,677.28 C671.027,676.56 669.001,677.417 668.28,679.195 C667.56,680.973 668.417,682.999 670.195,683.72 L670.195,683.72" fill="#000000"/>
    <path d="M575.409,776.973 L577.782,780.236 L582.725,781.908 L587.715,782.559 L592.693,782.462 L597.644,782.131 L602.561,781.44 L607.442,780.58 L612.293,779.662 L617.146,779.19 L622.04,779.544 L629.477,781.548 L639.134,780.86 L648.748,779.98 L658.318,779.066 L667.855,778.152 L677.367,777.271 L686.861,776.459 L693.963,775.914 L698.687,775.589 L703.427,775.297 L708.168,775.045 L712.913,774.836 L717.662,774.673 L722.417,774.56 L727.178,774.502 L729.531,774.495 L729.531,774.495 C735.052,774.478 739.513,769.989 739.495,764.469 C739.478,758.948 734.989,754.487 729.469,754.505 C729.469,754.505 729.469,754.505 729.469,754.505 L726.934,754.513 L721.943,754.574 L716.975,754.692 L712.029,754.863 L707.104,755.081 L702.199,755.343 L697.313,755.644 L692.43,755.981 L685.153,756.542 L675.521,757.37 L665.943,758.26 L656.409,759.18 L646.913,760.096 L637.444,760.977 L627.988,761.914 L621.057,765.007 L616.354,766.01 L611.593,766.116 L606.81,765.696 L602.035,765.247 L597.272,764.869 L592.517,764.748 L587.76,764.748 L582.985,765.374 L578.13,766.892 L575.591,770.027 C573.673,769.977 572.077,771.491 572.027,773.409 C571.977,775.328 573.491,776.923 575.409,776.973 L575.409,776.973" fill="#000000"/>
    <path d="M508.482,524.865 L508.481,524.865 L508.481,524.865 C509.967,524.865 512.076,523.359 513.191,521.501 C514.307,519.642 514.006,518.136 512.519,518.135 L512.518,518.135 C512.518,518.135 512.518,518.135 512.518,518.135 C511.031,518.136 508.922,519.643 507.808,521.501 C506.693,523.359 506.995,524.865 508.482,524.865 L508.482,524.865" fill="#000000"/>
    <path d="M510.281,518.865 L510.281,518.865 L510.281,518.865 C510.442,518.865 510.671,518.702 510.792,518.5 C510.913,518.298 510.881,518.135 510.719,518.135 C510.719,518.135 510.719,518.135 510.719,518.135 L510.719,518.135 C510.719,518.135 510.719,518.135 510.719,518.135 C510.558,518.135 510.329,518.298 510.208,518.5 C510.087,518.702 510.119,518.865 510.281,518.865 L510.281,518.865" fill="#000000"/>
  </g>
</svg>
