<?xml version="1.0" encoding="UTF-8"?>
<!DOCTYPE svg PUBLIC "-//W3C//DTD SVG 1.1//EN" "http://www.w3.org/Graphics/SVG/1.1/DTD/svg11.dtd">
<svg version="1.1" xmlns="http://www.w3.org/2000/svg" xmlns:xlink="http://www.w3.org/1999/xlink" x="0" y="0" width="750" height="100" viewBox="0, 0, 750, 100">
  <g id="Layer_1">
    <g id="text4109">
      <path d="M55.387,41.404 L106.35,41.404 C106.421,43.158 106.457,44.288 106.457,44.794 C106.457,55.239 106.189,63.306 105.653,68.995 C104.796,78.193 100.009,83.765 91.292,85.714 C86.79,86.688 81.86,87.273 76.501,87.468 C70.82,87.702 64.086,87.818 56.298,87.818 C42.472,87.818 32.594,87.273 26.663,86.182 C18.446,84.701 13.355,80.57 11.39,73.789 C10.426,70.476 9.872,66.677 9.729,62.39 C9.55,57.012 9.461,51.283 9.461,45.204 C9.461,34.915 9.908,27.686 10.801,23.516 C12.087,17.71 14.302,13.618 17.446,11.24 C19.089,9.954 21.143,8.98 23.608,8.317 C26.109,7.616 29.628,7.051 34.166,6.622 C40.56,5.999 49.206,5.687 60.103,5.687 C74.107,5.687 84.021,6.291 89.845,7.499 C95.739,8.707 99.884,10.851 102.277,13.929 C104.385,16.696 105.671,21.061 106.136,27.024 C106.243,28.621 106.296,31.077 106.297,34.389 L84.003,34.389 C83.968,32.207 83.86,30.726 83.682,29.946 C83.182,27.959 81.592,26.77 78.912,26.381 C75.376,25.874 68.409,25.621 58.013,25.621 C48.76,25.621 42.347,25.952 38.774,26.614 C35.38,27.277 33.326,29.303 32.611,32.694 C32.04,35.266 31.754,39.845 31.754,46.431 C31.754,53.992 32.058,59.155 32.665,61.922 C33.451,65.624 35.88,67.69 39.953,68.119 C41.954,68.313 47.991,68.489 58.066,68.645 C69.07,68.567 76.161,68.333 79.341,67.943 C82.235,67.437 83.896,66.053 84.325,63.793 C84.575,62.39 84.7,60.246 84.7,57.363 L55.387,57.363 L55.387,41.404" fill="#00B8E5" id="path4610"/>
      <path d="M122.638,6.856 L146.057,6.856 L146.057,86.649 L122.638,86.649 L122.638,6.856" fill="#00B8E5" id="path4612"/>
      <path d="M161.005,60.227 L182.602,60.227 C182.566,64.163 183.298,66.696 184.799,67.826 C185.585,68.372 186.478,68.742 187.478,68.937 C188.479,69.132 190.229,69.268 192.73,69.346 C193.98,69.385 198.071,69.424 205.002,69.463 C214.505,69.424 220.007,69.366 221.507,69.288 C224.33,69.054 226.187,68.645 227.081,68.06 C228.331,67.203 228.956,65.293 228.956,62.331 C228.956,60.305 228.563,58.882 227.777,58.064 C226.705,56.934 224.151,56.33 220.114,56.252 C217.327,56.252 211.504,56.018 202.644,55.55 C193.498,55.083 187.568,54.81 184.852,54.732 C177.779,54.498 172.795,53.602 169.901,52.043 C166.186,50.056 163.756,46.665 162.613,41.872 C161.97,39.222 161.648,35.753 161.648,31.466 C161.648,22.425 163.22,16.053 166.364,12.351 C168.722,9.545 172.295,7.694 177.082,6.798 C181.405,6.018 191.694,5.629 207.949,5.628 C218.524,5.629 225.991,5.96 230.35,6.622 C236.101,7.519 240.246,9.078 242.782,11.299 C246.212,14.378 247.927,19.892 247.927,27.842 C247.927,28.699 247.909,30.063 247.873,31.934 L226.277,31.934 C226.205,30.024 226.08,28.699 225.902,27.959 C225.402,25.777 223.758,24.549 220.972,24.276 C218.506,24.042 212.504,23.925 202.966,23.925 C193.534,23.925 187.943,24.218 186.192,24.802 C184.227,25.504 183.245,27.316 183.245,30.239 C183.245,33.045 184.281,34.759 186.353,35.383 C188.104,35.89 195.981,36.377 209.986,36.844 C222.668,37.234 230.76,37.721 234.262,38.306 C237.798,38.89 240.603,39.767 242.675,40.936 C244.783,42.105 246.462,43.762 247.713,45.905 C249.606,49.062 250.553,54.148 250.553,61.162 C250.553,68.995 249.624,74.744 247.766,78.407 C245.908,82.031 242.872,84.506 238.656,85.831 C234.512,87.156 223.097,87.818 204.412,87.818 C193.052,87.818 184.852,87.487 179.815,86.825 C173.67,86.045 169.258,84.525 166.579,82.265 C163.685,79.849 161.97,76.439 161.434,72.035 C161.148,69.892 161.005,67.359 161.005,64.436 L161.005,60.227" fill="#00B8E5" id="path4614"/>
      <path d="M315.018,5.687 C330.38,5.687 341.026,6.116 346.957,6.973 C355.495,8.22 360.729,12.643 362.658,20.243 C363.98,25.465 364.641,34.311 364.641,46.782 C364.641,59.214 363.98,68.041 362.658,73.263 C360.729,80.862 355.495,85.285 346.957,86.532 C341.062,87.39 330.201,87.818 314.375,87.818 C298.584,87.818 287.723,87.39 281.792,86.532 C273.254,85.285 268.02,80.862 266.091,73.263 C264.769,68.041 264.108,59.214 264.108,46.782 C264.108,34.272 264.769,25.426 266.091,20.243 C268.02,12.643 273.254,8.22 281.792,6.973 C287.759,6.116 298.834,5.687 315.018,5.687 M313.517,26.439 C302.335,26.439 295.547,26.77 293.153,27.433 C290.259,28.251 288.402,30.102 287.58,32.986 C286.794,35.831 286.401,41.073 286.401,48.711 C286.401,53.66 286.633,57.226 287.098,59.409 C287.991,63.462 290.688,65.78 295.19,66.365 C298.512,66.833 304.907,67.066 314.375,67.066 C323.842,67.066 330.237,66.833 333.559,66.365 C338.061,65.78 340.74,63.462 341.598,59.409 C342.098,57.187 342.348,53.738 342.348,49.062 C342.348,43.333 342.205,39.261 341.919,36.844 C341.419,32.83 340.276,30.161 338.49,28.836 C336.882,27.589 333.506,26.829 328.361,26.556 C326.503,26.478 321.555,26.439 313.517,26.439" fill="#EEEBEB" id="path4616"/>
      <path d="M380.34,6.856 L402.633,6.856 L402.633,43.508 C402.74,51.926 403.008,57.246 403.437,59.467 C404.151,63.247 406.581,65.469 410.725,66.131 C414.512,66.755 420.246,67.066 427.927,67.066 C435.858,67.066 441.431,66.813 444.647,66.306 C449.327,65.527 451.935,62.604 452.471,57.538 C452.899,53.446 453.114,48.77 453.114,43.508 L453.114,6.856 L475.407,6.856 L475.407,43.508 C475.157,56.291 474.782,64.65 474.282,68.586 C473.388,75.211 470.459,80.102 465.493,83.259 C461.813,85.558 455.633,86.961 446.951,87.468 C442.95,87.702 436.698,87.818 428.195,87.818 C415.655,87.818 406.741,87.429 401.454,86.649 C397.453,86.065 394.273,85.266 391.915,84.253 C389.557,83.2 387.556,81.72 385.913,79.81 C383.662,77.199 382.215,73.925 381.572,69.989 C380.858,65.508 380.483,60.091 380.447,53.738 L380.34,43.508 L380.34,6.856" fill="#EEEBEB" id="path4618"/>
      <path d="M492.606,6.856 L516.025,6.856 L516.025,86.649 L492.606,86.649 L492.606,6.856" fill="#EEEBEB" id="path4620"/>
      <path d="M603.104,55.843 L625.397,55.843 C625.54,59.74 625.611,62.409 625.612,63.851 C625.611,69.658 624.772,74.315 623.093,77.822 C621.342,81.486 618.002,84.038 613.072,85.48 C607.677,87.078 598.352,87.877 585.098,87.877 C570.486,87.877 560.644,87.624 555.571,87.117 C550.855,86.688 547.139,86.006 544.424,85.071 C541.709,84.136 539.458,82.772 537.672,80.979 C535.278,78.563 533.76,75.367 533.117,71.392 C532.402,67.222 532.045,59.194 532.045,47.308 C532.045,35.89 532.313,28.193 532.849,24.218 C533.635,18.255 535.76,13.929 539.226,11.24 C541.87,9.214 546.085,7.772 551.873,6.915 C557.875,6.057 568.646,5.629 584.187,5.628 C593.44,5.629 600.032,5.843 603.962,6.272 C609.892,6.895 614.215,8.142 616.93,10.013 C620.288,12.312 622.414,15.644 623.307,20.009 C623.95,23.127 624.272,26.731 624.272,30.823 C624.272,31.525 624.254,33.064 624.218,35.441 L601.925,35.441 C601.854,33.493 601.782,32.168 601.711,31.466 C601.425,29.089 600.443,27.589 598.763,26.965 C596.227,26.03 589.296,25.562 577.971,25.562 C570.254,25.562 564.931,25.796 562.001,26.264 C558.429,26.809 556.214,28.933 555.356,32.635 C554.677,35.636 554.338,40.469 554.338,47.133 C554.338,53.992 554.677,58.727 555.356,61.338 C556.214,64.728 558.572,66.696 562.43,67.242 C565.574,67.67 571.094,67.885 578.989,67.885 C587.528,67.885 593.351,67.69 596.459,67.3 C599.389,66.949 601.246,65.8 602.032,63.851 C602.675,62.215 603.033,59.545 603.104,55.843" fill="#EEEBEB" id="path4622"/>
      <path d="M640.721,6.856 L663.014,6.856 L663.014,35.792 L675.232,35.792 L704.17,6.33 L738.253,6.33 L695.971,46.022 L741.844,86.649 L707.975,86.649 L675.232,56.135 L663.014,56.135 L663.014,86.649 L640.721,86.649 L640.721,6.856" fill="#EEEBEB" id="path4624"/>
    </g>
    <g id="rect4121">
      <path d="M317.103,54.014 L326.476,40.748 L379.798,81.232 L370.425,94.497 z" fill="#EEEBEB"/>
      <path d="M317.103,54.014 L326.476,40.748 L379.798,81.232 L370.425,94.497 z" fill-opacity="0" stroke="#FFFFFF" stroke-width="1.834" stroke-linejoin="round"/>
    </g>
  </g>
</svg>
